%TF.GenerationSoftware,KiCad,Pcbnew,9.0.0*%
%TF.CreationDate,2025-04-18T19:56:47-04:00*%
%TF.ProjectId,TEMP_ctrl,54454d50-5f63-4747-926c-2e6b69636164,rev?*%
%TF.SameCoordinates,Original*%
%TF.FileFunction,Copper,L2,Bot*%
%TF.FilePolarity,Positive*%
%FSLAX46Y46*%
G04 Gerber Fmt 4.6, Leading zero omitted, Abs format (unit mm)*
G04 Created by KiCad (PCBNEW 9.0.0) date 2025-04-18 19:56:47*
%MOMM*%
%LPD*%
G01*
G04 APERTURE LIST*
G04 Aperture macros list*
%AMRoundRect*
0 Rectangle with rounded corners*
0 $1 Rounding radius*
0 $2 $3 $4 $5 $6 $7 $8 $9 X,Y pos of 4 corners*
0 Add a 4 corners polygon primitive as box body*
4,1,4,$2,$3,$4,$5,$6,$7,$8,$9,$2,$3,0*
0 Add four circle primitives for the rounded corners*
1,1,$1+$1,$2,$3*
1,1,$1+$1,$4,$5*
1,1,$1+$1,$6,$7*
1,1,$1+$1,$8,$9*
0 Add four rect primitives between the rounded corners*
20,1,$1+$1,$2,$3,$4,$5,0*
20,1,$1+$1,$4,$5,$6,$7,0*
20,1,$1+$1,$6,$7,$8,$9,0*
20,1,$1+$1,$8,$9,$2,$3,0*%
G04 Aperture macros list end*
%TA.AperFunction,ComponentPad*%
%ADD10R,2.000000X1.905000*%
%TD*%
%TA.AperFunction,ComponentPad*%
%ADD11O,2.000000X1.905000*%
%TD*%
%TA.AperFunction,ComponentPad*%
%ADD12RoundRect,0.250001X-1.149999X1.149999X-1.149999X-1.149999X1.149999X-1.149999X1.149999X1.149999X0*%
%TD*%
%TA.AperFunction,ComponentPad*%
%ADD13C,2.800000*%
%TD*%
%TA.AperFunction,ComponentPad*%
%ADD14RoundRect,0.250000X0.750000X0.750000X-0.750000X0.750000X-0.750000X-0.750000X0.750000X-0.750000X0*%
%TD*%
%TA.AperFunction,ComponentPad*%
%ADD15C,2.000000*%
%TD*%
%TA.AperFunction,ComponentPad*%
%ADD16R,1.700000X1.700000*%
%TD*%
%TA.AperFunction,ComponentPad*%
%ADD17O,1.700000X1.700000*%
%TD*%
%TA.AperFunction,ComponentPad*%
%ADD18R,1.530000X1.530000*%
%TD*%
%TA.AperFunction,ComponentPad*%
%ADD19C,1.530000*%
%TD*%
%TA.AperFunction,SMDPad,CuDef*%
%ADD20R,4.000000X4.000000*%
%TD*%
%TA.AperFunction,ViaPad*%
%ADD21C,0.584200*%
%TD*%
%TA.AperFunction,Conductor*%
%ADD22C,0.508000*%
%TD*%
%TA.AperFunction,Conductor*%
%ADD23C,0.152400*%
%TD*%
%TA.AperFunction,Conductor*%
%ADD24C,0.254000*%
%TD*%
G04 APERTURE END LIST*
D10*
%TO.P,Q2,1,G*%
%TO.N,Net-(Q2-G)*%
X126900000Y-98155000D03*
D11*
%TO.P,Q2,2,D*%
%TO.N,Net-(J9-Pin_1)*%
X126900000Y-95615000D03*
%TO.P,Q2,3,S*%
%TO.N,GNDPWR*%
X126900000Y-93075000D03*
%TD*%
D12*
%TO.P,J10,1,Pin_1*%
%TO.N,Net-(J10-Pin_1)*%
X114700000Y-116825000D03*
D13*
%TO.P,J10,2,Pin_2*%
%TO.N,+24V*%
X114700000Y-121825000D03*
%TD*%
D12*
%TO.P,J12,1,Pin_1*%
%TO.N,Net-(J12-Pin_1)*%
X114700000Y-128475000D03*
D13*
%TO.P,J12,2,Pin_2*%
%TO.N,+24V*%
X114700000Y-133475000D03*
%TD*%
D14*
%TO.P,J1,1,Pin_1*%
%TO.N,Net-(J1-Pin_1)*%
X158550000Y-93150000D03*
D15*
%TO.P,J1,2,Pin_2*%
%TO.N,VAA*%
X156010000Y-93150000D03*
%TD*%
D12*
%TO.P,J9,1,Pin_1*%
%TO.N,Net-(J9-Pin_1)*%
X114700000Y-93525000D03*
D13*
%TO.P,J9,2,Pin_2*%
%TO.N,+24V*%
X114700000Y-98525000D03*
%TD*%
D10*
%TO.P,Q5,1,G*%
%TO.N,Net-(Q5-G)*%
X126900000Y-131480000D03*
D11*
%TO.P,Q5,2,D*%
%TO.N,Net-(J12-Pin_1)*%
X126900000Y-128940000D03*
%TO.P,Q5,3,S*%
%TO.N,GNDPWR*%
X126900000Y-126400000D03*
%TD*%
D16*
%TO.P,J7,1,Pin_1*%
%TO.N,+3.3V*%
X136300000Y-102900000D03*
D17*
%TO.P,J7,2,Pin_2*%
%TO.N,SCL*%
X136300000Y-105440000D03*
%TO.P,J7,3,Pin_3*%
%TO.N,SDA*%
X136300000Y-107980000D03*
%TO.P,J7,4,Pin_4*%
%TO.N,GNDD*%
X136300000Y-110520000D03*
%TD*%
D14*
%TO.P,J4,1,Pin_1*%
%TO.N,Net-(J4-Pin_1)*%
X186475000Y-93150000D03*
D15*
%TO.P,J4,2,Pin_2*%
%TO.N,VAA*%
X183935000Y-93150000D03*
%TD*%
D14*
%TO.P,J3,1,Pin_1*%
%TO.N,Net-(J3-Pin_1)*%
X167858333Y-93150000D03*
D15*
%TO.P,J3,2,Pin_2*%
%TO.N,VAA*%
X165318333Y-93150000D03*
%TD*%
D10*
%TO.P,Q4,1,G*%
%TO.N,Net-(Q4-G)*%
X126900000Y-120371667D03*
D11*
%TO.P,Q4,2,D*%
%TO.N,Net-(J10-Pin_1)*%
X126900000Y-117831667D03*
%TO.P,Q4,3,S*%
%TO.N,GNDPWR*%
X126900000Y-115291667D03*
%TD*%
D12*
%TO.P,J11,1,Pin_1*%
%TO.N,Net-(J11-Pin_1)*%
X114700000Y-105175000D03*
D13*
%TO.P,J11,2,Pin_2*%
%TO.N,+24V*%
X114700000Y-110175000D03*
%TD*%
D10*
%TO.P,Q1,1,G*%
%TO.N,Net-(Q1-G)*%
X126900000Y-109263333D03*
D11*
%TO.P,Q1,2,D*%
%TO.N,Net-(J11-Pin_1)*%
X126900000Y-106723333D03*
%TO.P,Q1,3,S*%
%TO.N,GNDPWR*%
X126900000Y-104183333D03*
%TD*%
D18*
%TO.P,U2,1,PA02_A0_D0*%
%TO.N,CH4*%
X152907500Y-138860000D03*
D19*
%TO.P,U2,2,PA4_A1_D1*%
%TO.N,CH3*%
X152907500Y-136320000D03*
%TO.P,U2,3,PA10_A2_D2*%
%TO.N,CH2*%
X152907500Y-133780000D03*
%TO.P,U2,4,PA11_A3_D3*%
%TO.N,CH1*%
X152907500Y-131240000D03*
%TO.P,U2,5,PA8_A4_D4_SDA*%
%TO.N,SDA*%
X152907500Y-128700000D03*
%TO.P,U2,6,PA9_A5_D5_SCL*%
%TO.N,SCL*%
X152907500Y-126160000D03*
%TO.P,U2,7,PB08_A6_D6_TX*%
%TO.N,R_PWR_EN*%
X152907500Y-123620000D03*
%TO.P,U2,8,PB09_A7_D7_RX*%
%TO.N,HEATER1*%
X137667500Y-123620000D03*
%TO.P,U2,9,PA7_A8_D8_SCK*%
%TO.N,HEATER2*%
X137667500Y-126160000D03*
%TO.P,U2,10,PA5_A9_D9_MISO*%
%TO.N,HEATER3*%
X137667500Y-128700000D03*
%TO.P,U2,11,PA6_A10_D10_MOSI*%
%TO.N,HEATER4*%
X137667500Y-131240000D03*
%TO.P,U2,12,3V3*%
%TO.N,+3.3V*%
X137667500Y-133780000D03*
%TO.P,U2,13,GND*%
%TO.N,GNDD*%
X137667500Y-136320000D03*
%TO.P,U2,14,5V*%
%TO.N,+5V*%
X137667500Y-138860000D03*
%TD*%
D14*
%TO.P,J2,1,Pin_1*%
%TO.N,Net-(J2-Pin_1)*%
X177166667Y-93150000D03*
D15*
%TO.P,J2,2,Pin_2*%
%TO.N,VAA*%
X174626667Y-93150000D03*
%TD*%
D20*
%TO.P,J5,1,Pin_1*%
%TO.N,+24V*%
X117550000Y-138500000D03*
%TD*%
D21*
%TO.N,GNDA*%
X175420000Y-112577500D03*
X178380000Y-109150000D03*
X156795000Y-112577500D03*
X159755000Y-109150000D03*
X146500000Y-103000000D03*
X150000000Y-103000000D03*
X150000000Y-101000000D03*
%TO.N,GNDD*%
X129500000Y-93500000D03*
%TO.N,VAA*%
X148212500Y-107975000D03*
%TO.N,GNDA*%
X160000000Y-121000000D03*
X169000000Y-140000000D03*
X149000000Y-91000000D03*
X170000000Y-97000000D03*
X155000000Y-119000000D03*
X185000000Y-99000000D03*
X170000000Y-99000000D03*
X191000000Y-118000000D03*
X162000000Y-99000000D03*
X191000000Y-93000000D03*
X157000000Y-117000000D03*
X174000000Y-111000000D03*
X157000000Y-123000000D03*
X160000000Y-127000000D03*
X176000000Y-123000000D03*
X175000000Y-140000000D03*
X164000000Y-121000000D03*
X145000000Y-93000000D03*
X163000000Y-93000000D03*
X147000000Y-93000000D03*
X153000000Y-93000000D03*
X180000000Y-125000000D03*
X191000000Y-130000000D03*
X191000000Y-102000000D03*
X154000000Y-111000000D03*
X156350000Y-100300000D03*
X166000000Y-107000000D03*
X191000000Y-132000000D03*
X149000000Y-93000000D03*
X190000000Y-91000000D03*
X145000000Y-131000000D03*
X181000000Y-97000000D03*
X172000000Y-127000000D03*
X145000000Y-91000000D03*
X190000000Y-99000000D03*
X168000000Y-131000000D03*
X188000000Y-99000000D03*
X168000000Y-137000000D03*
X151000000Y-95000000D03*
X191000000Y-116000000D03*
X191000000Y-128000000D03*
X151000000Y-137000000D03*
X191000000Y-120000000D03*
X172000000Y-117000000D03*
X174000000Y-131000000D03*
X179000000Y-99000000D03*
X156000000Y-107000000D03*
X185000000Y-97000000D03*
X174000000Y-115000000D03*
X177000000Y-138000000D03*
X181000000Y-140000000D03*
X152000000Y-111000000D03*
X190000000Y-95000000D03*
X170000000Y-115000000D03*
X151000000Y-117000000D03*
X166000000Y-133000000D03*
X164000000Y-119000000D03*
X170000000Y-91000000D03*
X154000000Y-109000000D03*
X170000000Y-135000000D03*
X191000000Y-134000000D03*
X186000000Y-119000000D03*
X149000000Y-133000000D03*
X178000000Y-129000000D03*
X157000000Y-121000000D03*
X174000000Y-125000000D03*
X183000000Y-105000000D03*
X170000000Y-93000000D03*
X179000000Y-97000000D03*
X181000000Y-93000000D03*
X176000000Y-121000000D03*
X172000000Y-121000000D03*
X170000000Y-117000000D03*
X166000000Y-99000000D03*
X172000000Y-99000000D03*
X162000000Y-125000000D03*
X190000000Y-93000000D03*
X164000000Y-125000000D03*
X172000000Y-97000000D03*
X155000000Y-121000000D03*
X149000000Y-135000000D03*
X187000000Y-128000000D03*
X151000000Y-131000000D03*
X171000000Y-140000000D03*
X180000000Y-127000000D03*
X182000000Y-125000000D03*
X184000000Y-121000000D03*
X191000000Y-124000000D03*
X179000000Y-134000000D03*
X157000000Y-96000000D03*
X145000000Y-117000000D03*
X149000000Y-117000000D03*
X166000000Y-97000000D03*
X160000000Y-97000000D03*
X172000000Y-133000000D03*
X179000000Y-136000000D03*
X157000000Y-98000000D03*
X166000000Y-101000000D03*
X188000000Y-95000000D03*
X162000000Y-127000000D03*
X172000000Y-91000000D03*
X153000000Y-119000000D03*
X149000000Y-131000000D03*
X176000000Y-131000000D03*
X179000000Y-93000000D03*
X149000000Y-95000000D03*
X154000000Y-113000000D03*
X170000000Y-123000000D03*
X145000000Y-95000000D03*
X178000000Y-127000000D03*
X166000000Y-131000000D03*
X178000000Y-119000000D03*
X172000000Y-113000000D03*
X174000000Y-123000000D03*
X164000000Y-123000000D03*
X179000000Y-91000000D03*
X157000000Y-125000000D03*
X176000000Y-97000000D03*
X173000000Y-140000000D03*
X174000000Y-113000000D03*
X191000000Y-97000000D03*
X161000000Y-91000000D03*
X162000000Y-119000000D03*
X189000000Y-124000000D03*
X168000000Y-129000000D03*
X164000000Y-97000000D03*
X155000000Y-123000000D03*
X184000000Y-123000000D03*
X172000000Y-125000000D03*
X185000000Y-140000000D03*
X191000000Y-138000000D03*
X164000000Y-133000000D03*
X151000000Y-135000000D03*
X170000000Y-137000000D03*
X191000000Y-112000000D03*
X164000000Y-101000000D03*
X147000000Y-95000000D03*
X172000000Y-115000000D03*
X166000000Y-121000000D03*
X170000000Y-129000000D03*
X165000000Y-140000000D03*
X191000000Y-114000000D03*
X174000000Y-117000000D03*
X160000000Y-125000000D03*
X191000000Y-106000000D03*
X178000000Y-121000000D03*
X172000000Y-123000000D03*
X154000000Y-103000000D03*
X166000000Y-127000000D03*
X191000000Y-110000000D03*
X164000000Y-131000000D03*
X170000000Y-127000000D03*
X191000000Y-126000000D03*
X172000000Y-93000000D03*
X191000000Y-100000000D03*
X162000000Y-97000000D03*
X161000000Y-93000000D03*
X149000000Y-139000000D03*
X185000000Y-128000000D03*
X186000000Y-121000000D03*
X153000000Y-117000000D03*
X174500000Y-95250000D03*
X191000000Y-95000000D03*
X177000000Y-136000000D03*
X191000000Y-99000000D03*
X160000000Y-99000000D03*
X187000000Y-126000000D03*
X181000000Y-91000000D03*
X174000000Y-121000000D03*
X188000000Y-97000000D03*
X170000000Y-125000000D03*
X189000000Y-140000000D03*
X152000000Y-101000000D03*
X189000000Y-128000000D03*
X175000000Y-138000000D03*
X182000000Y-119000000D03*
X176000000Y-115000000D03*
X163000000Y-91000000D03*
X151000000Y-91000000D03*
X172000000Y-101000000D03*
X170000000Y-121000000D03*
X162000000Y-123000000D03*
X183000000Y-140000000D03*
X154000000Y-107000000D03*
X182000000Y-121000000D03*
X168000000Y-127000000D03*
X151000000Y-119000000D03*
X157000000Y-119000000D03*
X185000000Y-95000000D03*
X179000000Y-140000000D03*
X160000000Y-123000000D03*
X190000000Y-97000000D03*
X165500000Y-95000000D03*
X177000000Y-140000000D03*
X191000000Y-140000000D03*
X152000000Y-103000000D03*
X181000000Y-99000000D03*
X176000000Y-129000000D03*
X172000000Y-111000000D03*
X174000000Y-105000000D03*
X167000000Y-140000000D03*
X147000000Y-131000000D03*
X174000000Y-133000000D03*
X145000000Y-106500000D03*
X191000000Y-91000000D03*
X166000000Y-123000000D03*
X151000000Y-139000000D03*
X191000000Y-122000000D03*
X153000000Y-91000000D03*
X151000000Y-133000000D03*
X189000000Y-126000000D03*
X162000000Y-121000000D03*
X163000000Y-140000000D03*
X172000000Y-135000000D03*
X191000000Y-104000000D03*
X182000000Y-123000000D03*
X191000000Y-136000000D03*
X149000000Y-137000000D03*
X151000000Y-93000000D03*
X147000000Y-91000000D03*
X174000000Y-101000000D03*
X150000000Y-111000000D03*
X145000000Y-108500000D03*
X172000000Y-109000000D03*
X176000000Y-99000000D03*
X166000000Y-129000000D03*
X187000000Y-140000000D03*
X155000000Y-117000000D03*
X183000000Y-101000000D03*
X157000000Y-127000000D03*
X145000000Y-104500000D03*
X179000000Y-138000000D03*
X191000000Y-108000000D03*
X184000000Y-119000000D03*
%TO.N,GNDD*%
X130000000Y-137500000D03*
X130000000Y-140000000D03*
X135100000Y-120000000D03*
X137300000Y-115450000D03*
X137300000Y-120000000D03*
X135100000Y-112950000D03*
X129500000Y-91250000D03*
X135000000Y-140000000D03*
X137300000Y-117500000D03*
X135100000Y-115450000D03*
X137300000Y-112950000D03*
X130000000Y-105000000D03*
X135100000Y-117500000D03*
X140000000Y-105000000D03*
X135000000Y-135000000D03*
X140000000Y-107500000D03*
X135000000Y-137500000D03*
X132500000Y-137500000D03*
X132500000Y-140000000D03*
X140000000Y-102500000D03*
X130000000Y-115000000D03*
X132500000Y-135000000D03*
%TO.N,Net-(U1B-+)*%
X161879167Y-113847500D03*
X161879167Y-108767500D03*
%TO.N,VAA{slash}2*%
X175420000Y-109150000D03*
X151132500Y-105675000D03*
%TO.N,Net-(U1D-+)*%
X166829167Y-116387500D03*
X167556667Y-107225000D03*
X166829167Y-111307500D03*
%TO.N,Net-(U4B-+)*%
X180500000Y-108767500D03*
X180500000Y-113847500D03*
%TO.N,Net-(U4D-+)*%
X185450000Y-116387500D03*
X185450000Y-111307500D03*
X186190000Y-105500000D03*
%TO.N,CH2*%
X168650000Y-113650000D03*
X158100000Y-133780000D03*
%TO.N,Net-(Q1-G)*%
X129700000Y-109263333D03*
X131940000Y-126160000D03*
%TO.N,Net-(Q2-G)*%
X131940000Y-123620000D03*
X129700000Y-98155000D03*
%TO.N,Net-(Q4-G)*%
X129700000Y-120371667D03*
X131940000Y-128700000D03*
%TO.N,CH3*%
X167220000Y-134640000D03*
X158100000Y-136320000D03*
%TO.N,CH4*%
X158100000Y-138860000D03*
X187690000Y-112590000D03*
%TO.N,R_COM*%
X177166667Y-103260000D03*
X186475000Y-103260000D03*
X167858333Y-103260000D03*
X158550000Y-103260000D03*
%TO.N,R_PWR_EN*%
X144730000Y-102050000D03*
%TO.N,+3.3V*%
X141673750Y-129773750D03*
%TD*%
D22*
%TO.N,VAA*%
X167190000Y-95200000D02*
X172576667Y-95200000D01*
X165318333Y-93328333D02*
X167190000Y-95200000D01*
X165318333Y-93150000D02*
X165318333Y-93328333D01*
X172576667Y-95200000D02*
X174626667Y-93150000D01*
X176345000Y-95175000D02*
X181910000Y-95175000D01*
X181910000Y-95175000D02*
X183935000Y-93150000D01*
X174626667Y-93456667D02*
X176345000Y-95175000D01*
X174626667Y-93150000D02*
X174626667Y-93456667D01*
X163193333Y-95275000D02*
X165318333Y-93150000D01*
X156010000Y-93150000D02*
X156010000Y-93350000D01*
X156010000Y-93350000D02*
X157935000Y-95275000D01*
X157935000Y-95275000D02*
X163193333Y-95275000D01*
D23*
%TO.N,R_PWR_EN*%
X141350000Y-120425000D02*
X144545000Y-123620000D01*
X144545000Y-123620000D02*
X152907500Y-123620000D01*
X141350000Y-105430000D02*
X141350000Y-120425000D01*
X144730000Y-102050000D02*
X141350000Y-105430000D01*
D22*
%TO.N,VAA*%
X156010000Y-93150000D02*
X148212500Y-100947500D01*
X148212500Y-100947500D02*
X148212500Y-107975000D01*
D24*
%TO.N,Net-(U1B-+)*%
X161879167Y-109845833D02*
X160750000Y-110975000D01*
X160750000Y-110975000D02*
X160750000Y-112718333D01*
X160750000Y-112718333D02*
X161879167Y-113847500D01*
X161879167Y-108767500D02*
X161879167Y-109845833D01*
%TO.N,VAA{slash}2*%
X175420000Y-109150000D02*
X171945000Y-105675000D01*
X171945000Y-105675000D02*
X151132500Y-105675000D01*
%TO.N,Net-(U1D-+)*%
X166829167Y-108950000D02*
X166829167Y-111307500D01*
X166829167Y-116387500D02*
X166829167Y-111307500D01*
X166829167Y-108950000D02*
X166829167Y-107952500D01*
X166829167Y-107952500D02*
X167556667Y-107225000D01*
%TO.N,Net-(U4B-+)*%
X180500000Y-108767500D02*
X180500000Y-113847500D01*
%TO.N,Net-(U4D-+)*%
X185450000Y-106240000D02*
X185450000Y-111307500D01*
X186190000Y-105500000D02*
X185450000Y-106240000D01*
X185450000Y-116387500D02*
X185450000Y-111307500D01*
%TO.N,CH2*%
X168650000Y-123230000D02*
X158100000Y-133780000D01*
X168650000Y-113650000D02*
X168650000Y-123230000D01*
%TO.N,Net-(Q1-G)*%
X131050000Y-125270000D02*
X131050000Y-110613333D01*
X131050000Y-110613333D02*
X129700000Y-109263333D01*
X131940000Y-126160000D02*
X131050000Y-125270000D01*
%TO.N,Net-(Q2-G)*%
X131940000Y-123620000D02*
X132350000Y-123210000D01*
X132350000Y-123210000D02*
X132350000Y-100805000D01*
X132350000Y-100805000D02*
X129700000Y-98155000D01*
%TO.N,Net-(Q4-G)*%
X129700000Y-126460000D02*
X129700000Y-120371667D01*
X131940000Y-128700000D02*
X129700000Y-126460000D01*
%TO.N,CH3*%
X167220000Y-134640000D02*
X165540000Y-136320000D01*
X165540000Y-136320000D02*
X158100000Y-136320000D01*
%TO.N,CH4*%
X158100000Y-138860000D02*
X170210000Y-138860000D01*
X187690000Y-121380000D02*
X187690000Y-112590000D01*
X170210000Y-138860000D02*
X187690000Y-121380000D01*
D22*
%TO.N,R_COM*%
X186475000Y-103260000D02*
X177166667Y-103260000D01*
X177166667Y-103260000D02*
X167858333Y-103260000D01*
X167858333Y-103260000D02*
X158550000Y-103260000D01*
D24*
%TO.N,+3.3V*%
X133900000Y-105300000D02*
X133900000Y-130012500D01*
X133900000Y-130012500D02*
X137667500Y-133780000D01*
X141673750Y-129773750D02*
X137667500Y-133780000D01*
X136300000Y-102900000D02*
X133900000Y-105300000D01*
D23*
%TO.N,SDA*%
X138650000Y-121819834D02*
X138541000Y-121710835D01*
X138541000Y-110221000D02*
X136300000Y-107980000D01*
X138839165Y-122009000D02*
X138650000Y-121819834D01*
X152907500Y-128700000D02*
X145530166Y-128700000D01*
X145530166Y-128700000D02*
X138839165Y-122009000D01*
X138541000Y-121710835D02*
X138541000Y-110221000D01*
%TO.N,SCL*%
X152907500Y-126160000D02*
X145060000Y-126160000D01*
X145060000Y-126160000D02*
X139950000Y-121050000D01*
X139950000Y-121050000D02*
X139950000Y-109090000D01*
X139950000Y-109090000D02*
X136300000Y-105440000D01*
%TD*%
%TA.AperFunction,Conductor*%
%TO.N,GNDD*%
G36*
X143223138Y-89822893D02*
G01*
X143248858Y-89867442D01*
X143250000Y-89880500D01*
X143250000Y-103031171D01*
X143232407Y-103079509D01*
X143227974Y-103084345D01*
X142830153Y-103482166D01*
X141146947Y-105165372D01*
X141146945Y-105165374D01*
X141130962Y-105181357D01*
X141085374Y-105226944D01*
X141041836Y-105302353D01*
X141041835Y-105302355D01*
X141028247Y-105353071D01*
X141019300Y-105386462D01*
X141019300Y-120468538D01*
X141031376Y-120513608D01*
X141041835Y-120552644D01*
X141041836Y-120552646D01*
X141085375Y-120628057D01*
X141151224Y-120693906D01*
X141151238Y-120693918D01*
X143000000Y-122542680D01*
X143000000Y-123632320D01*
X140302726Y-120935046D01*
X140280986Y-120888426D01*
X140280700Y-120881872D01*
X140280700Y-109139606D01*
X140280701Y-109139593D01*
X140280701Y-109046464D01*
X140269212Y-109003583D01*
X140258165Y-108962355D01*
X140214627Y-108886946D01*
X140214626Y-108886945D01*
X140214625Y-108886943D01*
X137317685Y-105990004D01*
X137295945Y-105943384D01*
X137303855Y-105902692D01*
X137323580Y-105863981D01*
X137377303Y-105698638D01*
X137404500Y-105526926D01*
X137404500Y-105353074D01*
X137377303Y-105181362D01*
X137323580Y-105016019D01*
X137244653Y-104861116D01*
X137142465Y-104720467D01*
X137142463Y-104720465D01*
X137142456Y-104720457D01*
X137019542Y-104597543D01*
X137019534Y-104597536D01*
X136878885Y-104495347D01*
X136798426Y-104454351D01*
X136723981Y-104416420D01*
X136723974Y-104416417D01*
X136723970Y-104416416D01*
X136558642Y-104362698D01*
X136558630Y-104362695D01*
X136386928Y-104335500D01*
X136386926Y-104335500D01*
X136213074Y-104335500D01*
X136213071Y-104335500D01*
X136041369Y-104362695D01*
X136041357Y-104362698D01*
X135876029Y-104416416D01*
X135876021Y-104416419D01*
X135876019Y-104416420D01*
X135876015Y-104416421D01*
X135876015Y-104416422D01*
X135721114Y-104495347D01*
X135580465Y-104597536D01*
X135580457Y-104597543D01*
X135457543Y-104720457D01*
X135457536Y-104720465D01*
X135355347Y-104861114D01*
X135276422Y-105016015D01*
X135276416Y-105016029D01*
X135222698Y-105181357D01*
X135222695Y-105181369D01*
X135195500Y-105353071D01*
X135195500Y-105526928D01*
X135222695Y-105698630D01*
X135222697Y-105698638D01*
X135276420Y-105863981D01*
X135276422Y-105863984D01*
X135355347Y-106018885D01*
X135457536Y-106159534D01*
X135457543Y-106159542D01*
X135580457Y-106282456D01*
X135580465Y-106282463D01*
X135580467Y-106282465D01*
X135657387Y-106338350D01*
X135721114Y-106384652D01*
X135721116Y-106384653D01*
X135876019Y-106463580D01*
X136041362Y-106517303D01*
X136213074Y-106544500D01*
X136213078Y-106544500D01*
X136386922Y-106544500D01*
X136386926Y-106544500D01*
X136558638Y-106517303D01*
X136723981Y-106463580D01*
X136762691Y-106443855D01*
X136813744Y-106437586D01*
X136850004Y-106457685D01*
X139597274Y-109204954D01*
X139619014Y-109251574D01*
X139619300Y-109258128D01*
X139619300Y-121093538D01*
X139631376Y-121138608D01*
X139641835Y-121177644D01*
X139641836Y-121177646D01*
X139685375Y-121253057D01*
X139751224Y-121318906D01*
X139751238Y-121318918D01*
X143000000Y-124567680D01*
X143000000Y-125702154D01*
X142409822Y-125111977D01*
X139077749Y-121779904D01*
X139042219Y-121744374D01*
X139042220Y-121744374D01*
X138893725Y-121595878D01*
X138871986Y-121549258D01*
X138871700Y-121542704D01*
X138871700Y-110270606D01*
X138871701Y-110270593D01*
X138871701Y-110177465D01*
X138871701Y-110177463D01*
X138849164Y-110093355D01*
X138849164Y-110093354D01*
X138805626Y-110017945D01*
X138744055Y-109956374D01*
X138744054Y-109956373D01*
X137317685Y-108530004D01*
X137295945Y-108483384D01*
X137303855Y-108442692D01*
X137323580Y-108403981D01*
X137377303Y-108238638D01*
X137404500Y-108066926D01*
X137404500Y-107893074D01*
X137377303Y-107721362D01*
X137323580Y-107556019D01*
X137244653Y-107401116D01*
X137142465Y-107260467D01*
X137142463Y-107260465D01*
X137142456Y-107260457D01*
X137019542Y-107137543D01*
X137019534Y-107137536D01*
X136878885Y-107035347D01*
X136798426Y-106994351D01*
X136723981Y-106956420D01*
X136723974Y-106956417D01*
X136723970Y-106956416D01*
X136558642Y-106902698D01*
X136558630Y-106902695D01*
X136386928Y-106875500D01*
X136386926Y-106875500D01*
X136213074Y-106875500D01*
X136213071Y-106875500D01*
X136041369Y-106902695D01*
X136041357Y-106902698D01*
X135876029Y-106956416D01*
X135876021Y-106956419D01*
X135876019Y-106956420D01*
X135876015Y-106956421D01*
X135876015Y-106956422D01*
X135721114Y-107035347D01*
X135580465Y-107137536D01*
X135580457Y-107137543D01*
X135457543Y-107260457D01*
X135457536Y-107260465D01*
X135355347Y-107401114D01*
X135276422Y-107556015D01*
X135276416Y-107556029D01*
X135222698Y-107721357D01*
X135222695Y-107721369D01*
X135195500Y-107893071D01*
X135195500Y-108066928D01*
X135222695Y-108238630D01*
X135222697Y-108238638D01*
X135276420Y-108403981D01*
X135276422Y-108403984D01*
X135355347Y-108558885D01*
X135457536Y-108699534D01*
X135457543Y-108699542D01*
X135580457Y-108822456D01*
X135580465Y-108822463D01*
X135580467Y-108822465D01*
X135585260Y-108825947D01*
X135721114Y-108924652D01*
X135721116Y-108924653D01*
X135876019Y-109003580D01*
X136041362Y-109057303D01*
X136213074Y-109084500D01*
X136213078Y-109084500D01*
X136386922Y-109084500D01*
X136386926Y-109084500D01*
X136558638Y-109057303D01*
X136723981Y-109003580D01*
X136762691Y-108983855D01*
X136813744Y-108977586D01*
X136850004Y-108997685D01*
X138188274Y-110335954D01*
X138210014Y-110382574D01*
X138210300Y-110389128D01*
X138210300Y-121662679D01*
X138210299Y-121662697D01*
X138210299Y-121754372D01*
X138232836Y-121838482D01*
X138247206Y-121863370D01*
X138247207Y-121863372D01*
X138276373Y-121913890D01*
X138344130Y-121981647D01*
X138344143Y-121981657D01*
X138385372Y-122022886D01*
X138385372Y-122022887D01*
X138385373Y-122022887D01*
X138574538Y-122212053D01*
X138574539Y-122212054D01*
X141872592Y-125510107D01*
X143000000Y-126637514D01*
X143000000Y-130000000D01*
X143250000Y-130000000D01*
X143250000Y-141619500D01*
X143232407Y-141667838D01*
X143187858Y-141693558D01*
X143174800Y-141694700D01*
X128550200Y-141694700D01*
X128501862Y-141677107D01*
X128476142Y-141632558D01*
X128475000Y-141619500D01*
X128475000Y-138759588D01*
X136648000Y-138759588D01*
X136648000Y-138960412D01*
X136687179Y-139157377D01*
X136764031Y-139342914D01*
X136875603Y-139509893D01*
X136875605Y-139509895D01*
X136875607Y-139509898D01*
X137017601Y-139651892D01*
X137017604Y-139651894D01*
X137017607Y-139651897D01*
X137184586Y-139763469D01*
X137370123Y-139840321D01*
X137488302Y-139863828D01*
X137567086Y-139879500D01*
X137567088Y-139879500D01*
X137767914Y-139879500D01*
X137833567Y-139866440D01*
X137964877Y-139840321D01*
X138150414Y-139763469D01*
X138317393Y-139651897D01*
X138459397Y-139509893D01*
X138570969Y-139342914D01*
X138647821Y-139157377D01*
X138687000Y-138960412D01*
X138687000Y-138759588D01*
X138647821Y-138562623D01*
X138570969Y-138377086D01*
X138459397Y-138210107D01*
X138459394Y-138210104D01*
X138459392Y-138210101D01*
X138317398Y-138068107D01*
X138317395Y-138068105D01*
X138317393Y-138068103D01*
X138150414Y-137956531D01*
X137964877Y-137879679D01*
X137964874Y-137879678D01*
X137964873Y-137879678D01*
X137767914Y-137840500D01*
X137767912Y-137840500D01*
X137567088Y-137840500D01*
X137567086Y-137840500D01*
X137370126Y-137879678D01*
X137370123Y-137879679D01*
X137184587Y-137956530D01*
X137017604Y-138068105D01*
X137017601Y-138068107D01*
X136875607Y-138210101D01*
X136875605Y-138210104D01*
X136764030Y-138377087D01*
X136687179Y-138562623D01*
X136648000Y-138759588D01*
X128475000Y-138759588D01*
X128475000Y-136229643D01*
X136750100Y-136229643D01*
X136750100Y-136410356D01*
X136785354Y-136587592D01*
X136785355Y-136587595D01*
X136854510Y-136754550D01*
X136934151Y-136873742D01*
X137228413Y-136579480D01*
X137259398Y-136633147D01*
X137354353Y-136728102D01*
X137408017Y-136759085D01*
X137113756Y-137053347D01*
X137232949Y-137132989D01*
X137399904Y-137202144D01*
X137399907Y-137202145D01*
X137577143Y-137237400D01*
X137757857Y-137237400D01*
X137935092Y-137202145D01*
X137935095Y-137202144D01*
X138102054Y-137132987D01*
X138221241Y-137053348D01*
X138221242Y-137053347D01*
X137926981Y-136759086D01*
X137980647Y-136728102D01*
X138075602Y-136633147D01*
X138106586Y-136579481D01*
X138400847Y-136873742D01*
X138400848Y-136873741D01*
X138480487Y-136754554D01*
X138549644Y-136587595D01*
X138549645Y-136587592D01*
X138584900Y-136410356D01*
X138584900Y-136229643D01*
X138549645Y-136052407D01*
X138549644Y-136052404D01*
X138480489Y-135885449D01*
X138400847Y-135766256D01*
X138106585Y-136060517D01*
X138075602Y-136006853D01*
X137980647Y-135911898D01*
X137926980Y-135880913D01*
X138221242Y-135586651D01*
X138102050Y-135507010D01*
X137935095Y-135437855D01*
X137935092Y-135437854D01*
X137757857Y-135402600D01*
X137577143Y-135402600D01*
X137399907Y-135437854D01*
X137399904Y-135437855D01*
X137232946Y-135507011D01*
X137113756Y-135586650D01*
X137113756Y-135586651D01*
X137408018Y-135880913D01*
X137354353Y-135911898D01*
X137259398Y-136006853D01*
X137228413Y-136060518D01*
X136934151Y-135766256D01*
X136934150Y-135766256D01*
X136854511Y-135885446D01*
X136785355Y-136052404D01*
X136785354Y-136052407D01*
X136750100Y-136229643D01*
X128475000Y-136229643D01*
X128475000Y-120299706D01*
X129153400Y-120299706D01*
X129153400Y-120443628D01*
X129160075Y-120468538D01*
X129190650Y-120582648D01*
X129216866Y-120628055D01*
X129262611Y-120707288D01*
X129296474Y-120741151D01*
X129318214Y-120787770D01*
X129318500Y-120794325D01*
X129318500Y-126510225D01*
X129337999Y-126582996D01*
X129344499Y-126607255D01*
X129380349Y-126669349D01*
X129380351Y-126669351D01*
X129394723Y-126694245D01*
X129394727Y-126694251D01*
X131371374Y-128670896D01*
X131393114Y-128717516D01*
X131393400Y-128724070D01*
X131393400Y-128771961D01*
X131401024Y-128800413D01*
X131430650Y-128910981D01*
X131461622Y-128964626D01*
X131499770Y-129030701D01*
X131502610Y-129035619D01*
X131502614Y-129035625D01*
X131604374Y-129137385D01*
X131604377Y-129137387D01*
X131604379Y-129137389D01*
X131729020Y-129209350D01*
X131868039Y-129246600D01*
X131868042Y-129246600D01*
X132011958Y-129246600D01*
X132011961Y-129246600D01*
X132150980Y-129209350D01*
X132275621Y-129137389D01*
X132377389Y-129035621D01*
X132449350Y-128910980D01*
X132486600Y-128771961D01*
X132486600Y-128628039D01*
X132449350Y-128489020D01*
X132377389Y-128364379D01*
X132377387Y-128364377D01*
X132377385Y-128364374D01*
X132275625Y-128262614D01*
X132275619Y-128262610D01*
X132150981Y-128190650D01*
X132116225Y-128181337D01*
X132011961Y-128153400D01*
X132011958Y-128153400D01*
X131964070Y-128153400D01*
X131915732Y-128135807D01*
X131910896Y-128131374D01*
X130103526Y-126324003D01*
X130081786Y-126277383D01*
X130081500Y-126270829D01*
X130081500Y-120794325D01*
X130099093Y-120745987D01*
X130103515Y-120741161D01*
X130137389Y-120707288D01*
X130209350Y-120582647D01*
X130246600Y-120443628D01*
X130246600Y-120299706D01*
X130209350Y-120160687D01*
X130137389Y-120036046D01*
X130137387Y-120036044D01*
X130137385Y-120036041D01*
X130035625Y-119934281D01*
X130035619Y-119934277D01*
X129910981Y-119862317D01*
X129876225Y-119853004D01*
X129771961Y-119825067D01*
X129628039Y-119825067D01*
X129544627Y-119847417D01*
X129489018Y-119862317D01*
X129364380Y-119934277D01*
X129364374Y-119934281D01*
X129262614Y-120036041D01*
X129262610Y-120036047D01*
X129190650Y-120160685D01*
X129172025Y-120230196D01*
X129153400Y-120299706D01*
X128475000Y-120299706D01*
X128475000Y-98083039D01*
X129153400Y-98083039D01*
X129153400Y-98226961D01*
X129181337Y-98331225D01*
X129190650Y-98365981D01*
X129262610Y-98490619D01*
X129262614Y-98490625D01*
X129364374Y-98592385D01*
X129364377Y-98592387D01*
X129364379Y-98592389D01*
X129489020Y-98664350D01*
X129628039Y-98701600D01*
X129675929Y-98701600D01*
X129724267Y-98719193D01*
X129729103Y-98723626D01*
X131946474Y-100940997D01*
X131968214Y-100987617D01*
X131968500Y-100994171D01*
X131968500Y-122998200D01*
X131950907Y-123046538D01*
X131906358Y-123072258D01*
X131893300Y-123073400D01*
X131868039Y-123073400D01*
X131784627Y-123095750D01*
X131729018Y-123110650D01*
X131604380Y-123182610D01*
X131604374Y-123182614D01*
X131559874Y-123227115D01*
X131513254Y-123248855D01*
X131463567Y-123235541D01*
X131434062Y-123193404D01*
X131431500Y-123173941D01*
X131431500Y-110563110D01*
X131431500Y-110563108D01*
X131405501Y-110466079D01*
X131355276Y-110379086D01*
X131355274Y-110379084D01*
X131355272Y-110379081D01*
X131281632Y-110305441D01*
X131281609Y-110305420D01*
X130268626Y-109292436D01*
X130246886Y-109245816D01*
X130246600Y-109239262D01*
X130246600Y-109191374D01*
X130246600Y-109191372D01*
X130209350Y-109052353D01*
X130205949Y-109046463D01*
X130181189Y-109003577D01*
X130137389Y-108927712D01*
X130137387Y-108927710D01*
X130137385Y-108927707D01*
X130035625Y-108825947D01*
X130035619Y-108825943D01*
X130029591Y-108822463D01*
X130009280Y-108810736D01*
X129910981Y-108753983D01*
X129876225Y-108744670D01*
X129771961Y-108716733D01*
X129628039Y-108716733D01*
X129544627Y-108739083D01*
X129489018Y-108753983D01*
X129364380Y-108825943D01*
X129364374Y-108825947D01*
X129262614Y-108927707D01*
X129262610Y-108927713D01*
X129190650Y-109052351D01*
X129182036Y-109084500D01*
X129153400Y-109191372D01*
X129153400Y-109335294D01*
X129181337Y-109439558D01*
X129190650Y-109474314D01*
X129262610Y-109598952D01*
X129262614Y-109598958D01*
X129364374Y-109700718D01*
X129364377Y-109700720D01*
X129364379Y-109700722D01*
X129489020Y-109772683D01*
X129628039Y-109809933D01*
X129675929Y-109809933D01*
X129724267Y-109827526D01*
X129729103Y-109831959D01*
X130646474Y-110749329D01*
X130668214Y-110795949D01*
X130668500Y-110802503D01*
X130668500Y-125320225D01*
X130694499Y-125417253D01*
X130694500Y-125417257D01*
X130713336Y-125449881D01*
X130732173Y-125482507D01*
X130732173Y-125482509D01*
X130744723Y-125504245D01*
X130744727Y-125504251D01*
X131371374Y-126130897D01*
X131393114Y-126177517D01*
X131393400Y-126184071D01*
X131393400Y-126231961D01*
X131412161Y-126301977D01*
X131430650Y-126370981D01*
X131502610Y-126495619D01*
X131502614Y-126495625D01*
X131604374Y-126597385D01*
X131604377Y-126597387D01*
X131604379Y-126597389D01*
X131729020Y-126669350D01*
X131868039Y-126706600D01*
X131868042Y-126706600D01*
X132011958Y-126706600D01*
X132011961Y-126706600D01*
X132150980Y-126669350D01*
X132275621Y-126597389D01*
X132377389Y-126495621D01*
X132449350Y-126370980D01*
X132486600Y-126231961D01*
X132486600Y-126088039D01*
X132449350Y-125949020D01*
X132377389Y-125824379D01*
X132377387Y-125824377D01*
X132377385Y-125824374D01*
X132275625Y-125722614D01*
X132275619Y-125722610D01*
X132150981Y-125650650D01*
X132116225Y-125641337D01*
X132011961Y-125613400D01*
X132011958Y-125613400D01*
X131964071Y-125613400D01*
X131915733Y-125595807D01*
X131910897Y-125591374D01*
X131453526Y-125134003D01*
X131431786Y-125087383D01*
X131431500Y-125080829D01*
X131431500Y-124066059D01*
X131449093Y-124017721D01*
X131493642Y-123992001D01*
X131544300Y-124000934D01*
X131559874Y-124012885D01*
X131604374Y-124057385D01*
X131604377Y-124057387D01*
X131604379Y-124057389D01*
X131729020Y-124129350D01*
X131868039Y-124166600D01*
X131868042Y-124166600D01*
X132011958Y-124166600D01*
X132011961Y-124166600D01*
X132150980Y-124129350D01*
X132275621Y-124057389D01*
X132377389Y-123955621D01*
X132449350Y-123830980D01*
X132486600Y-123691961D01*
X132486600Y-123644070D01*
X132492214Y-123628643D01*
X132493645Y-123612290D01*
X132503060Y-123598842D01*
X132504193Y-123595732D01*
X132508616Y-123590905D01*
X132578053Y-123521467D01*
X132578063Y-123521460D01*
X132655272Y-123444251D01*
X132655276Y-123444247D01*
X132705501Y-123357254D01*
X132705502Y-123357253D01*
X132731501Y-123260225D01*
X132731501Y-123159775D01*
X132731501Y-123155173D01*
X132731500Y-123155155D01*
X132731500Y-105249775D01*
X133518500Y-105249775D01*
X133518500Y-130062725D01*
X133530999Y-130109371D01*
X133544499Y-130159755D01*
X133594723Y-130246745D01*
X133594727Y-130246751D01*
X136693655Y-133345678D01*
X136715395Y-133392298D01*
X136709957Y-133427629D01*
X136687181Y-133482615D01*
X136687179Y-133482621D01*
X136687179Y-133482623D01*
X136648000Y-133679588D01*
X136648000Y-133880412D01*
X136687179Y-134077377D01*
X136764031Y-134262914D01*
X136875603Y-134429893D01*
X136875605Y-134429895D01*
X136875607Y-134429898D01*
X137017601Y-134571892D01*
X137017604Y-134571894D01*
X137017607Y-134571897D01*
X137184586Y-134683469D01*
X137370123Y-134760321D01*
X137488302Y-134783828D01*
X137567086Y-134799500D01*
X137567088Y-134799500D01*
X137767914Y-134799500D01*
X137833567Y-134786440D01*
X137964877Y-134760321D01*
X138150414Y-134683469D01*
X138317393Y-134571897D01*
X138459397Y-134429893D01*
X138570969Y-134262914D01*
X138647821Y-134077377D01*
X138687000Y-133880412D01*
X138687000Y-133679588D01*
X138647821Y-133482623D01*
X138625040Y-133427628D01*
X138622797Y-133376239D01*
X138641341Y-133345680D01*
X141644647Y-130342376D01*
X141691267Y-130320636D01*
X141697821Y-130320350D01*
X141745708Y-130320350D01*
X141745711Y-130320350D01*
X141884730Y-130283100D01*
X142009371Y-130211139D01*
X142111139Y-130109371D01*
X142183100Y-129984730D01*
X142220350Y-129845711D01*
X142220350Y-129701789D01*
X142183100Y-129562770D01*
X142111139Y-129438129D01*
X142111137Y-129438127D01*
X142111135Y-129438124D01*
X142009375Y-129336364D01*
X142009369Y-129336360D01*
X141884731Y-129264400D01*
X141818299Y-129246600D01*
X141745711Y-129227150D01*
X141601789Y-129227150D01*
X141529201Y-129246600D01*
X141462768Y-129264400D01*
X141338130Y-129336360D01*
X141338124Y-129336364D01*
X141236364Y-129438124D01*
X141236360Y-129438130D01*
X141164400Y-129562768D01*
X141153495Y-129603469D01*
X141127150Y-129701789D01*
X141127150Y-129701791D01*
X141127150Y-129749678D01*
X141109557Y-129798016D01*
X141105124Y-129802852D01*
X138101820Y-132806155D01*
X138055200Y-132827895D01*
X138019869Y-132822457D01*
X137964880Y-132799680D01*
X137964878Y-132799679D01*
X137964877Y-132799679D01*
X137964875Y-132799678D01*
X137964873Y-132799678D01*
X137767914Y-132760500D01*
X137767912Y-132760500D01*
X137567088Y-132760500D01*
X137567086Y-132760500D01*
X137370121Y-132799679D01*
X137370115Y-132799681D01*
X137315129Y-132822457D01*
X137263738Y-132824700D01*
X137233178Y-132806155D01*
X135566611Y-131139588D01*
X136648000Y-131139588D01*
X136648000Y-131340412D01*
X136687179Y-131537377D01*
X136764031Y-131722914D01*
X136875603Y-131889893D01*
X136875605Y-131889895D01*
X136875607Y-131889898D01*
X137017601Y-132031892D01*
X137017604Y-132031894D01*
X137017607Y-132031897D01*
X137184586Y-132143469D01*
X137370123Y-132220321D01*
X137488302Y-132243828D01*
X137567086Y-132259500D01*
X137567088Y-132259500D01*
X137767914Y-132259500D01*
X137833567Y-132246440D01*
X137964877Y-132220321D01*
X138150414Y-132143469D01*
X138317393Y-132031897D01*
X138459397Y-131889893D01*
X138570969Y-131722914D01*
X138647821Y-131537377D01*
X138687000Y-131340412D01*
X138687000Y-131139588D01*
X138647821Y-130942623D01*
X138570969Y-130757086D01*
X138459397Y-130590107D01*
X138459394Y-130590104D01*
X138459392Y-130590101D01*
X138317398Y-130448107D01*
X138317395Y-130448105D01*
X138317393Y-130448103D01*
X138150414Y-130336531D01*
X137964877Y-130259679D01*
X137964874Y-130259678D01*
X137964873Y-130259678D01*
X137767914Y-130220500D01*
X137767912Y-130220500D01*
X137567088Y-130220500D01*
X137567086Y-130220500D01*
X137370126Y-130259678D01*
X137370123Y-130259679D01*
X137184587Y-130336530D01*
X137017604Y-130448105D01*
X137017601Y-130448107D01*
X136875607Y-130590101D01*
X136875605Y-130590104D01*
X136764030Y-130757087D01*
X136687179Y-130942623D01*
X136648000Y-131139588D01*
X135566611Y-131139588D01*
X134303526Y-129876503D01*
X134281786Y-129829883D01*
X134281500Y-129823329D01*
X134281500Y-128599586D01*
X136648000Y-128599586D01*
X136648000Y-128800413D01*
X136669993Y-128910981D01*
X136687179Y-128997377D01*
X136764031Y-129182914D01*
X136875603Y-129349893D01*
X136875605Y-129349895D01*
X136875607Y-129349898D01*
X137017601Y-129491892D01*
X137017604Y-129491894D01*
X137017607Y-129491897D01*
X137184586Y-129603469D01*
X137370123Y-129680321D01*
X137488302Y-129703828D01*
X137567086Y-129719500D01*
X137567088Y-129719500D01*
X137767914Y-129719500D01*
X137833567Y-129706440D01*
X137964877Y-129680321D01*
X138150414Y-129603469D01*
X138317393Y-129491897D01*
X138459397Y-129349893D01*
X138570969Y-129182914D01*
X138647821Y-128997377D01*
X138687000Y-128800412D01*
X138687000Y-128599588D01*
X138647821Y-128402623D01*
X138570969Y-128217086D01*
X138459397Y-128050107D01*
X138459394Y-128050104D01*
X138459392Y-128050101D01*
X138317398Y-127908107D01*
X138317395Y-127908105D01*
X138317393Y-127908103D01*
X138150414Y-127796531D01*
X137964877Y-127719679D01*
X137964874Y-127719678D01*
X137964873Y-127719678D01*
X137767914Y-127680500D01*
X137767912Y-127680500D01*
X137567088Y-127680500D01*
X137567086Y-127680500D01*
X137370126Y-127719678D01*
X137370123Y-127719679D01*
X137184587Y-127796530D01*
X137017604Y-127908105D01*
X137017601Y-127908107D01*
X136875607Y-128050101D01*
X136875605Y-128050104D01*
X136764030Y-128217087D01*
X136687179Y-128402623D01*
X136687178Y-128402626D01*
X136648000Y-128599586D01*
X134281500Y-128599586D01*
X134281500Y-126059586D01*
X136648000Y-126059586D01*
X136648000Y-126260413D01*
X136669993Y-126370981D01*
X136687179Y-126457377D01*
X136741520Y-126588569D01*
X136749260Y-126607255D01*
X136764031Y-126642914D01*
X136875603Y-126809893D01*
X136875605Y-126809895D01*
X136875607Y-126809898D01*
X137017601Y-126951892D01*
X137017604Y-126951894D01*
X137017607Y-126951897D01*
X137184586Y-127063469D01*
X137370123Y-127140321D01*
X137488302Y-127163828D01*
X137567086Y-127179500D01*
X137567088Y-127179500D01*
X137767914Y-127179500D01*
X137833567Y-127166440D01*
X137964877Y-127140321D01*
X138150414Y-127063469D01*
X138317393Y-126951897D01*
X138459397Y-126809893D01*
X138570969Y-126642914D01*
X138647821Y-126457377D01*
X138687000Y-126260412D01*
X138687000Y-126059588D01*
X138647821Y-125862623D01*
X138570969Y-125677086D01*
X138459397Y-125510107D01*
X138459394Y-125510104D01*
X138459392Y-125510101D01*
X138317398Y-125368107D01*
X138317395Y-125368105D01*
X138317393Y-125368103D01*
X138150414Y-125256531D01*
X137964877Y-125179679D01*
X137964874Y-125179678D01*
X137964873Y-125179678D01*
X137767914Y-125140500D01*
X137767912Y-125140500D01*
X137567088Y-125140500D01*
X137567086Y-125140500D01*
X137370126Y-125179678D01*
X137370123Y-125179679D01*
X137184587Y-125256530D01*
X137017604Y-125368105D01*
X137017601Y-125368107D01*
X136875607Y-125510101D01*
X136875605Y-125510104D01*
X136764030Y-125677087D01*
X136687179Y-125862623D01*
X136687178Y-125862626D01*
X136648000Y-126059586D01*
X134281500Y-126059586D01*
X134281500Y-123519586D01*
X136648000Y-123519586D01*
X136648000Y-123720413D01*
X136680205Y-123882320D01*
X136687179Y-123917377D01*
X136764031Y-124102914D01*
X136875603Y-124269893D01*
X136875605Y-124269895D01*
X136875607Y-124269898D01*
X137017601Y-124411892D01*
X137017604Y-124411894D01*
X137017607Y-124411897D01*
X137184586Y-124523469D01*
X137370123Y-124600321D01*
X137488302Y-124623828D01*
X137567086Y-124639500D01*
X137567088Y-124639500D01*
X137767914Y-124639500D01*
X137833567Y-124626440D01*
X137964877Y-124600321D01*
X138150414Y-124523469D01*
X138317393Y-124411897D01*
X138459397Y-124269893D01*
X138570969Y-124102914D01*
X138647821Y-123917377D01*
X138687000Y-123720412D01*
X138687000Y-123519588D01*
X138686142Y-123515277D01*
X138666583Y-123416946D01*
X138647821Y-123322623D01*
X138570969Y-123137086D01*
X138459397Y-122970107D01*
X138459394Y-122970104D01*
X138459392Y-122970101D01*
X138317398Y-122828107D01*
X138317395Y-122828105D01*
X138317393Y-122828103D01*
X138150414Y-122716531D01*
X137964877Y-122639679D01*
X137964874Y-122639678D01*
X137964873Y-122639678D01*
X137767914Y-122600500D01*
X137767912Y-122600500D01*
X137567088Y-122600500D01*
X137567086Y-122600500D01*
X137370126Y-122639678D01*
X137370123Y-122639679D01*
X137184587Y-122716530D01*
X137017604Y-122828105D01*
X137017601Y-122828107D01*
X136875607Y-122970101D01*
X136875605Y-122970104D01*
X136764030Y-123137087D01*
X136687179Y-123322623D01*
X136687178Y-123322626D01*
X136648000Y-123519586D01*
X134281500Y-123519586D01*
X134281500Y-110393000D01*
X135303223Y-110393000D01*
X135816392Y-110393000D01*
X135800000Y-110454174D01*
X135800000Y-110585826D01*
X135816392Y-110647000D01*
X135303224Y-110647000D01*
X135336121Y-110812385D01*
X135336122Y-110812388D01*
X135411684Y-110994812D01*
X135521389Y-111158998D01*
X135661001Y-111298610D01*
X135825187Y-111408315D01*
X136007611Y-111483877D01*
X136007614Y-111483878D01*
X136173000Y-111516776D01*
X136173000Y-111003608D01*
X136234174Y-111020000D01*
X136365826Y-111020000D01*
X136427000Y-111003608D01*
X136427000Y-111516775D01*
X136592385Y-111483878D01*
X136592388Y-111483877D01*
X136774812Y-111408315D01*
X136938998Y-111298610D01*
X137078610Y-111158998D01*
X137188315Y-110994812D01*
X137263877Y-110812388D01*
X137263878Y-110812385D01*
X137296776Y-110647000D01*
X136783608Y-110647000D01*
X136800000Y-110585826D01*
X136800000Y-110454174D01*
X136783608Y-110393000D01*
X137296776Y-110393000D01*
X137263878Y-110227614D01*
X137263877Y-110227611D01*
X137188315Y-110045187D01*
X137078610Y-109881001D01*
X136938998Y-109741389D01*
X136774812Y-109631684D01*
X136592388Y-109556122D01*
X136592385Y-109556121D01*
X136427000Y-109523223D01*
X136427000Y-110036391D01*
X136365826Y-110020000D01*
X136234174Y-110020000D01*
X136173000Y-110036391D01*
X136173000Y-109523223D01*
X136172999Y-109523223D01*
X136007614Y-109556121D01*
X136007611Y-109556122D01*
X135825187Y-109631684D01*
X135661001Y-109741389D01*
X135521389Y-109881001D01*
X135411684Y-110045187D01*
X135336122Y-110227611D01*
X135336121Y-110227614D01*
X135303223Y-110393000D01*
X134281500Y-110393000D01*
X134281500Y-105489169D01*
X134299093Y-105440831D01*
X134303515Y-105436006D01*
X135712996Y-104026524D01*
X135759616Y-104004785D01*
X135766170Y-104004499D01*
X137175068Y-104004499D01*
X137175068Y-104004498D01*
X137249301Y-103989734D01*
X137333484Y-103933484D01*
X137389734Y-103849301D01*
X137404500Y-103775067D01*
X137404499Y-102024934D01*
X137389734Y-101950699D01*
X137333484Y-101866516D01*
X137249301Y-101810266D01*
X137249299Y-101810265D01*
X137175067Y-101795500D01*
X135424932Y-101795500D01*
X135424931Y-101795501D01*
X135350699Y-101810266D01*
X135266516Y-101866516D01*
X135210266Y-101950698D01*
X135210265Y-101950700D01*
X135195500Y-102024932D01*
X135195500Y-103433828D01*
X135177907Y-103482166D01*
X135173474Y-103487002D01*
X133594727Y-105065748D01*
X133594723Y-105065754D01*
X133544499Y-105152744D01*
X133536831Y-105181362D01*
X133518500Y-105249775D01*
X132731500Y-105249775D01*
X132731500Y-100754777D01*
X132731500Y-100754775D01*
X132705502Y-100657747D01*
X132705501Y-100657746D01*
X132705501Y-100657744D01*
X132655276Y-100570752D01*
X130268626Y-98184102D01*
X130246886Y-98137482D01*
X130246600Y-98130928D01*
X130246600Y-98083041D01*
X130246600Y-98083039D01*
X130209350Y-97944020D01*
X130137389Y-97819379D01*
X130137387Y-97819377D01*
X130137385Y-97819374D01*
X130035625Y-97717614D01*
X130035619Y-97717610D01*
X129910981Y-97645650D01*
X129876225Y-97636337D01*
X129771961Y-97608400D01*
X129628039Y-97608400D01*
X129544627Y-97630750D01*
X129489018Y-97645650D01*
X129364380Y-97717610D01*
X129364374Y-97717614D01*
X129262614Y-97819374D01*
X129262610Y-97819380D01*
X129190650Y-97944018D01*
X129172025Y-98013529D01*
X129153400Y-98083039D01*
X128475000Y-98083039D01*
X128475000Y-89880500D01*
X128492593Y-89832162D01*
X128537142Y-89806442D01*
X128550200Y-89805300D01*
X143174800Y-89805300D01*
X143223138Y-89822893D01*
G37*
%TD.AperFunction*%
%TA.AperFunction,Conductor*%
G36*
X143217933Y-104117628D02*
G01*
X143247438Y-104159765D01*
X143250000Y-104179228D01*
X143250000Y-120750000D01*
X143000000Y-120750000D01*
X143000000Y-121607320D01*
X141702726Y-120310046D01*
X141680986Y-120263426D01*
X141680700Y-120256872D01*
X141680700Y-105598128D01*
X141698293Y-105549790D01*
X141702726Y-105544954D01*
X143121626Y-104126054D01*
X143168246Y-104104314D01*
X143217933Y-104117628D01*
G37*
%TD.AperFunction*%
%TD*%
%TA.AperFunction,Conductor*%
%TO.N,GNDD*%
G36*
X154173138Y-120767593D02*
G01*
X154198858Y-120812142D01*
X154200000Y-120825200D01*
X154200000Y-129924800D01*
X154182407Y-129973138D01*
X154137858Y-129998858D01*
X154124800Y-130000000D01*
X143000000Y-130000000D01*
X143000000Y-126637514D01*
X145262903Y-128900417D01*
X145262924Y-128900440D01*
X145327106Y-128964622D01*
X145327108Y-128964623D01*
X145327111Y-128964626D01*
X145402520Y-129008164D01*
X145425057Y-129014202D01*
X145486629Y-129030701D01*
X145578307Y-129030701D01*
X145578323Y-129030700D01*
X151890735Y-129030700D01*
X151939073Y-129048293D01*
X151960210Y-129077120D01*
X152004031Y-129182914D01*
X152115603Y-129349893D01*
X152115605Y-129349895D01*
X152115607Y-129349898D01*
X152257601Y-129491892D01*
X152257604Y-129491894D01*
X152257607Y-129491897D01*
X152424586Y-129603469D01*
X152610123Y-129680321D01*
X152728302Y-129703828D01*
X152807086Y-129719500D01*
X152807088Y-129719500D01*
X153007914Y-129719500D01*
X153073567Y-129706440D01*
X153204877Y-129680321D01*
X153390414Y-129603469D01*
X153557393Y-129491897D01*
X153699397Y-129349893D01*
X153810969Y-129182914D01*
X153887821Y-128997377D01*
X153927000Y-128800412D01*
X153927000Y-128599588D01*
X153887821Y-128402623D01*
X153810969Y-128217086D01*
X153699397Y-128050107D01*
X153699394Y-128050104D01*
X153699392Y-128050101D01*
X153557398Y-127908107D01*
X153557395Y-127908105D01*
X153557393Y-127908103D01*
X153390414Y-127796531D01*
X153204877Y-127719679D01*
X153204874Y-127719678D01*
X153204873Y-127719678D01*
X153007914Y-127680500D01*
X153007912Y-127680500D01*
X152807088Y-127680500D01*
X152807086Y-127680500D01*
X152610126Y-127719678D01*
X152610123Y-127719679D01*
X152424587Y-127796530D01*
X152257604Y-127908105D01*
X152257601Y-127908107D01*
X152115607Y-128050101D01*
X152115605Y-128050104D01*
X152004030Y-128217087D01*
X151960211Y-128322878D01*
X151925459Y-128360803D01*
X151890735Y-128369300D01*
X145698294Y-128369300D01*
X145649956Y-128351707D01*
X145645120Y-128347274D01*
X143000000Y-125702154D01*
X143000000Y-124567680D01*
X144792737Y-126360417D01*
X144792758Y-126360440D01*
X144856942Y-126424624D01*
X144856944Y-126424625D01*
X144856945Y-126424626D01*
X144932354Y-126468164D01*
X145016462Y-126490700D01*
X145016463Y-126490700D01*
X145103537Y-126490700D01*
X151890735Y-126490700D01*
X151939073Y-126508293D01*
X151960210Y-126537120D01*
X152004031Y-126642914D01*
X152115603Y-126809893D01*
X152115605Y-126809895D01*
X152115607Y-126809898D01*
X152257601Y-126951892D01*
X152257604Y-126951894D01*
X152257607Y-126951897D01*
X152424586Y-127063469D01*
X152610123Y-127140321D01*
X152728302Y-127163828D01*
X152807086Y-127179500D01*
X152807088Y-127179500D01*
X153007914Y-127179500D01*
X153073567Y-127166440D01*
X153204877Y-127140321D01*
X153390414Y-127063469D01*
X153557393Y-126951897D01*
X153699397Y-126809893D01*
X153810969Y-126642914D01*
X153887821Y-126457377D01*
X153927000Y-126260412D01*
X153927000Y-126059588D01*
X153887821Y-125862623D01*
X153810969Y-125677086D01*
X153699397Y-125510107D01*
X153699394Y-125510104D01*
X153699392Y-125510101D01*
X153557398Y-125368107D01*
X153557395Y-125368105D01*
X153557393Y-125368103D01*
X153390414Y-125256531D01*
X153204877Y-125179679D01*
X153204874Y-125179678D01*
X153204873Y-125179678D01*
X153007914Y-125140500D01*
X153007912Y-125140500D01*
X152807088Y-125140500D01*
X152807086Y-125140500D01*
X152610126Y-125179678D01*
X152610123Y-125179679D01*
X152424587Y-125256530D01*
X152257604Y-125368105D01*
X152257601Y-125368107D01*
X152115607Y-125510101D01*
X152115605Y-125510104D01*
X152004030Y-125677087D01*
X151960211Y-125782878D01*
X151925459Y-125820803D01*
X151890735Y-125829300D01*
X145228128Y-125829300D01*
X145179790Y-125811707D01*
X145174954Y-125807274D01*
X143000000Y-123632320D01*
X143000000Y-122542680D01*
X144277737Y-123820417D01*
X144277758Y-123820440D01*
X144341942Y-123884624D01*
X144341944Y-123884625D01*
X144341945Y-123884626D01*
X144417354Y-123928164D01*
X144501462Y-123950700D01*
X151890735Y-123950700D01*
X151939073Y-123968293D01*
X151960210Y-123997120D01*
X152004031Y-124102914D01*
X152115603Y-124269893D01*
X152115605Y-124269895D01*
X152115607Y-124269898D01*
X152257601Y-124411892D01*
X152257604Y-124411894D01*
X152257607Y-124411897D01*
X152424586Y-124523469D01*
X152610123Y-124600321D01*
X152728302Y-124623828D01*
X152807086Y-124639500D01*
X152807088Y-124639500D01*
X153007914Y-124639500D01*
X153073567Y-124626440D01*
X153204877Y-124600321D01*
X153390414Y-124523469D01*
X153557393Y-124411897D01*
X153699397Y-124269893D01*
X153810969Y-124102914D01*
X153887821Y-123917377D01*
X153927000Y-123720412D01*
X153927000Y-123519588D01*
X153887821Y-123322623D01*
X153810969Y-123137086D01*
X153699397Y-122970107D01*
X153699394Y-122970104D01*
X153699392Y-122970101D01*
X153557398Y-122828107D01*
X153557395Y-122828105D01*
X153557393Y-122828103D01*
X153390414Y-122716531D01*
X153204877Y-122639679D01*
X153204874Y-122639678D01*
X153204873Y-122639678D01*
X153007914Y-122600500D01*
X153007912Y-122600500D01*
X152807088Y-122600500D01*
X152807086Y-122600500D01*
X152610126Y-122639678D01*
X152610123Y-122639679D01*
X152424587Y-122716530D01*
X152257604Y-122828105D01*
X152257601Y-122828107D01*
X152115607Y-122970101D01*
X152115605Y-122970104D01*
X152004030Y-123137087D01*
X151960211Y-123242878D01*
X151925459Y-123280803D01*
X151890735Y-123289300D01*
X144713128Y-123289300D01*
X144664790Y-123271707D01*
X144659954Y-123267274D01*
X143000000Y-121607320D01*
X143000000Y-120750000D01*
X143250000Y-120750000D01*
X154124800Y-120750000D01*
X154173138Y-120767593D01*
G37*
%TD.AperFunction*%
%TD*%
%TA.AperFunction,Conductor*%
%TO.N,GNDA*%
G36*
X191917838Y-89822893D02*
G01*
X191943558Y-89867442D01*
X191944700Y-89880500D01*
X191944700Y-141619500D01*
X191927107Y-141667838D01*
X191882558Y-141693558D01*
X191869500Y-141694700D01*
X143584700Y-141694700D01*
X143536362Y-141677107D01*
X143510642Y-141632558D01*
X143509500Y-141619500D01*
X143509500Y-138069932D01*
X151888000Y-138069932D01*
X151888000Y-139650067D01*
X151888001Y-139650068D01*
X151902766Y-139724301D01*
X151959016Y-139808484D01*
X152043199Y-139864734D01*
X152117433Y-139879500D01*
X153697566Y-139879499D01*
X153697567Y-139879499D01*
X153697567Y-139879498D01*
X153771801Y-139864734D01*
X153855984Y-139808484D01*
X153912234Y-139724301D01*
X153927000Y-139650067D01*
X153926999Y-138788039D01*
X157553400Y-138788039D01*
X157553400Y-138931961D01*
X157554175Y-138934852D01*
X157590650Y-139070981D01*
X157662610Y-139195619D01*
X157662614Y-139195625D01*
X157764374Y-139297385D01*
X157764377Y-139297387D01*
X157764379Y-139297389D01*
X157889020Y-139369350D01*
X158028039Y-139406600D01*
X158028042Y-139406600D01*
X158171958Y-139406600D01*
X158171961Y-139406600D01*
X158310980Y-139369350D01*
X158435621Y-139297389D01*
X158469484Y-139263525D01*
X158516103Y-139241786D01*
X158522658Y-139241500D01*
X170260222Y-139241500D01*
X170260225Y-139241500D01*
X170357254Y-139215501D01*
X170444247Y-139165276D01*
X170515276Y-139094247D01*
X187995276Y-121614247D01*
X187999275Y-121607320D01*
X188045501Y-121527254D01*
X188071500Y-121430225D01*
X188071500Y-113012658D01*
X188089093Y-112964320D01*
X188093515Y-112959494D01*
X188127389Y-112925621D01*
X188199350Y-112800980D01*
X188236600Y-112661961D01*
X188236600Y-112518039D01*
X188199350Y-112379020D01*
X188127389Y-112254379D01*
X188127387Y-112254377D01*
X188127385Y-112254374D01*
X188025625Y-112152614D01*
X188025619Y-112152610D01*
X187900981Y-112080650D01*
X187866225Y-112071337D01*
X187761961Y-112043400D01*
X187618039Y-112043400D01*
X187534627Y-112065750D01*
X187479018Y-112080650D01*
X187354380Y-112152610D01*
X187354374Y-112152614D01*
X187252614Y-112254374D01*
X187252610Y-112254380D01*
X187180650Y-112379018D01*
X187162025Y-112448529D01*
X187143400Y-112518039D01*
X187143400Y-112661961D01*
X187171337Y-112766225D01*
X187180650Y-112800981D01*
X187217951Y-112865588D01*
X187252611Y-112925621D01*
X187286474Y-112959484D01*
X187308214Y-113006103D01*
X187308500Y-113012658D01*
X187308500Y-121190829D01*
X187290907Y-121239167D01*
X187286474Y-121244003D01*
X170074003Y-138456474D01*
X170027383Y-138478214D01*
X170020829Y-138478500D01*
X158522658Y-138478500D01*
X158474320Y-138460907D01*
X158469494Y-138456484D01*
X158435621Y-138422611D01*
X158354069Y-138375527D01*
X158310981Y-138350650D01*
X158276225Y-138341337D01*
X158171961Y-138313400D01*
X158028039Y-138313400D01*
X157944627Y-138335750D01*
X157889018Y-138350650D01*
X157764380Y-138422610D01*
X157764374Y-138422614D01*
X157662614Y-138524374D01*
X157662610Y-138524380D01*
X157590650Y-138649018D01*
X157572025Y-138718529D01*
X157553400Y-138788039D01*
X153926999Y-138788039D01*
X153926999Y-138069934D01*
X153912234Y-137995699D01*
X153855984Y-137911516D01*
X153771801Y-137855266D01*
X153771799Y-137855265D01*
X153697567Y-137840500D01*
X152117432Y-137840500D01*
X152117431Y-137840501D01*
X152043199Y-137855266D01*
X151959016Y-137911516D01*
X151902766Y-137995698D01*
X151902765Y-137995700D01*
X151888000Y-138069932D01*
X143509500Y-138069932D01*
X143509500Y-136219586D01*
X151888000Y-136219586D01*
X151888000Y-136420413D01*
X151923943Y-136601112D01*
X151927179Y-136617377D01*
X152004031Y-136802914D01*
X152115603Y-136969893D01*
X152115605Y-136969895D01*
X152115607Y-136969898D01*
X152257601Y-137111892D01*
X152257604Y-137111894D01*
X152257607Y-137111897D01*
X152424586Y-137223469D01*
X152610123Y-137300321D01*
X152728302Y-137323828D01*
X152807086Y-137339500D01*
X152807088Y-137339500D01*
X153007914Y-137339500D01*
X153073567Y-137326440D01*
X153204877Y-137300321D01*
X153390414Y-137223469D01*
X153557393Y-137111897D01*
X153699397Y-136969893D01*
X153810969Y-136802914D01*
X153887821Y-136617377D01*
X153921168Y-136449731D01*
X153927000Y-136420413D01*
X153927000Y-136248039D01*
X157553400Y-136248039D01*
X157553400Y-136391961D01*
X157575332Y-136473812D01*
X157590650Y-136530981D01*
X157662610Y-136655619D01*
X157662614Y-136655625D01*
X157764374Y-136757385D01*
X157764377Y-136757387D01*
X157764379Y-136757389D01*
X157889020Y-136829350D01*
X158028039Y-136866600D01*
X158028042Y-136866600D01*
X158171958Y-136866600D01*
X158171961Y-136866600D01*
X158310980Y-136829350D01*
X158435621Y-136757389D01*
X158469484Y-136723525D01*
X158516103Y-136701786D01*
X158522658Y-136701500D01*
X165590222Y-136701500D01*
X165590225Y-136701500D01*
X165687254Y-136675501D01*
X165774247Y-136625276D01*
X165845276Y-136554247D01*
X167190897Y-135208626D01*
X167237517Y-135186886D01*
X167244071Y-135186600D01*
X167291958Y-135186600D01*
X167291961Y-135186600D01*
X167430980Y-135149350D01*
X167555621Y-135077389D01*
X167657389Y-134975621D01*
X167729350Y-134850980D01*
X167766600Y-134711961D01*
X167766600Y-134568039D01*
X167729350Y-134429020D01*
X167657389Y-134304379D01*
X167657387Y-134304377D01*
X167657385Y-134304374D01*
X167555625Y-134202614D01*
X167555619Y-134202610D01*
X167430981Y-134130650D01*
X167396225Y-134121337D01*
X167291961Y-134093400D01*
X167148039Y-134093400D01*
X167065109Y-134115621D01*
X167009018Y-134130650D01*
X166884380Y-134202610D01*
X166884374Y-134202614D01*
X166782614Y-134304374D01*
X166782610Y-134304380D01*
X166710650Y-134429018D01*
X166704090Y-134453502D01*
X166673400Y-134568039D01*
X166673400Y-134568041D01*
X166673400Y-134615929D01*
X166655807Y-134664267D01*
X166651374Y-134669103D01*
X165404003Y-135916474D01*
X165357383Y-135938214D01*
X165350829Y-135938500D01*
X158522658Y-135938500D01*
X158474320Y-135920907D01*
X158469494Y-135916484D01*
X158435621Y-135882611D01*
X158356769Y-135837086D01*
X158310981Y-135810650D01*
X158276225Y-135801337D01*
X158171961Y-135773400D01*
X158028039Y-135773400D01*
X157944627Y-135795750D01*
X157889018Y-135810650D01*
X157764380Y-135882610D01*
X157764374Y-135882614D01*
X157662614Y-135984374D01*
X157662610Y-135984380D01*
X157590650Y-136109018D01*
X157575331Y-136166190D01*
X157553400Y-136248039D01*
X153927000Y-136248039D01*
X153927000Y-136219586D01*
X153907101Y-136119548D01*
X153887821Y-136022623D01*
X153810969Y-135837086D01*
X153699397Y-135670107D01*
X153699394Y-135670104D01*
X153699392Y-135670101D01*
X153557398Y-135528107D01*
X153557395Y-135528105D01*
X153557393Y-135528103D01*
X153390414Y-135416531D01*
X153204877Y-135339679D01*
X153204874Y-135339678D01*
X153204873Y-135339678D01*
X153007914Y-135300500D01*
X153007912Y-135300500D01*
X152807088Y-135300500D01*
X152807086Y-135300500D01*
X152610126Y-135339678D01*
X152610123Y-135339679D01*
X152424587Y-135416530D01*
X152257604Y-135528105D01*
X152257601Y-135528107D01*
X152115607Y-135670101D01*
X152115605Y-135670104D01*
X152004030Y-135837087D01*
X151927179Y-136022623D01*
X151927178Y-136022626D01*
X151888000Y-136219586D01*
X143509500Y-136219586D01*
X143509500Y-133679586D01*
X151888000Y-133679586D01*
X151888000Y-133880413D01*
X151912122Y-134001684D01*
X151927179Y-134077377D01*
X152004031Y-134262914D01*
X152115603Y-134429893D01*
X152115605Y-134429895D01*
X152115607Y-134429898D01*
X152257601Y-134571892D01*
X152257604Y-134571894D01*
X152257607Y-134571897D01*
X152424586Y-134683469D01*
X152610123Y-134760321D01*
X152728302Y-134783828D01*
X152807086Y-134799500D01*
X152807088Y-134799500D01*
X153007914Y-134799500D01*
X153073567Y-134786440D01*
X153204877Y-134760321D01*
X153390414Y-134683469D01*
X153557393Y-134571897D01*
X153699397Y-134429893D01*
X153810969Y-134262914D01*
X153887821Y-134077377D01*
X153927000Y-133880412D01*
X153927000Y-133708039D01*
X157553400Y-133708039D01*
X157553400Y-133851961D01*
X157561024Y-133880413D01*
X157590650Y-133990981D01*
X157662610Y-134115619D01*
X157662614Y-134115625D01*
X157764374Y-134217385D01*
X157764377Y-134217387D01*
X157764379Y-134217389D01*
X157889020Y-134289350D01*
X158028039Y-134326600D01*
X158028042Y-134326600D01*
X158171958Y-134326600D01*
X158171961Y-134326600D01*
X158310980Y-134289350D01*
X158435621Y-134217389D01*
X158537389Y-134115621D01*
X158609350Y-133990980D01*
X158646600Y-133851961D01*
X158646600Y-133804071D01*
X158664193Y-133755733D01*
X158668626Y-133750897D01*
X168955272Y-123464251D01*
X168955276Y-123464247D01*
X168982585Y-123416946D01*
X169005501Y-123377254D01*
X169031500Y-123280225D01*
X169031500Y-114072658D01*
X169049093Y-114024320D01*
X169053515Y-114019494D01*
X169087389Y-113985621D01*
X169159350Y-113860980D01*
X169196600Y-113721961D01*
X169196600Y-113578039D01*
X169159350Y-113439020D01*
X169087389Y-113314379D01*
X169087387Y-113314377D01*
X169087385Y-113314374D01*
X168985625Y-113212614D01*
X168985619Y-113212610D01*
X168860981Y-113140650D01*
X168826225Y-113131337D01*
X168721961Y-113103400D01*
X168578039Y-113103400D01*
X168494627Y-113125750D01*
X168439018Y-113140650D01*
X168314380Y-113212610D01*
X168314374Y-113212614D01*
X168212614Y-113314374D01*
X168212610Y-113314380D01*
X168140650Y-113439018D01*
X168136103Y-113455990D01*
X168103400Y-113578039D01*
X168103400Y-113721961D01*
X168117757Y-113775541D01*
X168140650Y-113860981D01*
X168142980Y-113865016D01*
X168212611Y-113985621D01*
X168246474Y-114019484D01*
X168268214Y-114066103D01*
X168268500Y-114072658D01*
X168268500Y-123040829D01*
X168250907Y-123089167D01*
X168246474Y-123094003D01*
X158129103Y-133211374D01*
X158082483Y-133233114D01*
X158075929Y-133233400D01*
X158028039Y-133233400D01*
X157944627Y-133255750D01*
X157889018Y-133270650D01*
X157764380Y-133342610D01*
X157764374Y-133342614D01*
X157662614Y-133444374D01*
X157662610Y-133444380D01*
X157590650Y-133569018D01*
X157572025Y-133638529D01*
X157553400Y-133708039D01*
X153927000Y-133708039D01*
X153927000Y-133679588D01*
X153887821Y-133482623D01*
X153810969Y-133297086D01*
X153699397Y-133130107D01*
X153699394Y-133130104D01*
X153699392Y-133130101D01*
X153557398Y-132988107D01*
X153557395Y-132988105D01*
X153557393Y-132988103D01*
X153390414Y-132876531D01*
X153204877Y-132799679D01*
X153204874Y-132799678D01*
X153204873Y-132799678D01*
X153007914Y-132760500D01*
X153007912Y-132760500D01*
X152807088Y-132760500D01*
X152807086Y-132760500D01*
X152610126Y-132799678D01*
X152610123Y-132799679D01*
X152424587Y-132876530D01*
X152257604Y-132988105D01*
X152257601Y-132988107D01*
X152115607Y-133130101D01*
X152115605Y-133130104D01*
X152004030Y-133297087D01*
X151927179Y-133482623D01*
X151927178Y-133482626D01*
X151888000Y-133679586D01*
X143509500Y-133679586D01*
X143509500Y-130334700D01*
X143527093Y-130286362D01*
X143571642Y-130260642D01*
X143584700Y-130259500D01*
X152291970Y-130259500D01*
X152340308Y-130277093D01*
X152366028Y-130321642D01*
X152357095Y-130372300D01*
X152333750Y-130397225D01*
X152258228Y-130447687D01*
X152257604Y-130448105D01*
X152257601Y-130448107D01*
X152115607Y-130590101D01*
X152115605Y-130590104D01*
X152004030Y-130757087D01*
X151927179Y-130942623D01*
X151927178Y-130942626D01*
X151888000Y-131139586D01*
X151888000Y-131340413D01*
X151912122Y-131461684D01*
X151927179Y-131537377D01*
X152004031Y-131722914D01*
X152115603Y-131889893D01*
X152115605Y-131889895D01*
X152115607Y-131889898D01*
X152257601Y-132031892D01*
X152257604Y-132031894D01*
X152257607Y-132031897D01*
X152424586Y-132143469D01*
X152610123Y-132220321D01*
X152728302Y-132243828D01*
X152807086Y-132259500D01*
X152807088Y-132259500D01*
X153007914Y-132259500D01*
X153073567Y-132246440D01*
X153204877Y-132220321D01*
X153390414Y-132143469D01*
X153557393Y-132031897D01*
X153699397Y-131889893D01*
X153810969Y-131722914D01*
X153887821Y-131537377D01*
X153927000Y-131340412D01*
X153927000Y-131139588D01*
X153887821Y-130942623D01*
X153810969Y-130757086D01*
X153699397Y-130590107D01*
X153699394Y-130590104D01*
X153699392Y-130590101D01*
X153557398Y-130448107D01*
X153557395Y-130448105D01*
X153557393Y-130448103D01*
X153481250Y-130397225D01*
X153450834Y-130355743D01*
X153454199Y-130304414D01*
X153489770Y-130267255D01*
X153523030Y-130259500D01*
X154124810Y-130259500D01*
X154139872Y-130258842D01*
X154147409Y-130258513D01*
X154160467Y-130257371D01*
X154171728Y-130256138D01*
X154267607Y-130223592D01*
X154312156Y-130197872D01*
X154373732Y-130148452D01*
X154426258Y-130061890D01*
X154443851Y-130013552D01*
X154459499Y-129924804D01*
X154459500Y-129924804D01*
X154459500Y-120825189D01*
X154458513Y-120802595D01*
X154457372Y-120789547D01*
X154457371Y-120789533D01*
X154456138Y-120778272D01*
X154436120Y-120719300D01*
X154423594Y-120682398D01*
X154423593Y-120682396D01*
X154423592Y-120682393D01*
X154397872Y-120637844D01*
X154348452Y-120576268D01*
X154348451Y-120576267D01*
X154261891Y-120523742D01*
X154261881Y-120523738D01*
X154213553Y-120506149D01*
X154124804Y-120490500D01*
X154124800Y-120490500D01*
X143584700Y-120490500D01*
X143536362Y-120472907D01*
X143510642Y-120428358D01*
X143509500Y-120415300D01*
X143509500Y-110924775D01*
X160368500Y-110924775D01*
X160368500Y-112768558D01*
X160377188Y-112800980D01*
X160394499Y-112865588D01*
X160429242Y-112925764D01*
X160429242Y-112925765D01*
X160444720Y-112952575D01*
X160444727Y-112952584D01*
X161310541Y-113818396D01*
X161332281Y-113865016D01*
X161332567Y-113871570D01*
X161332567Y-113919461D01*
X161350294Y-113985619D01*
X161369817Y-114058481D01*
X161441777Y-114183119D01*
X161441781Y-114183125D01*
X161543541Y-114284885D01*
X161543544Y-114284887D01*
X161543546Y-114284889D01*
X161668187Y-114356850D01*
X161807206Y-114394100D01*
X161807209Y-114394100D01*
X161951125Y-114394100D01*
X161951128Y-114394100D01*
X162090147Y-114356850D01*
X162214788Y-114284889D01*
X162316556Y-114183121D01*
X162388517Y-114058480D01*
X162425767Y-113919461D01*
X162425767Y-113775539D01*
X162388517Y-113636520D01*
X162316556Y-113511879D01*
X162316554Y-113511877D01*
X162316552Y-113511874D01*
X162214792Y-113410114D01*
X162214786Y-113410110D01*
X162090148Y-113338150D01*
X162055392Y-113328837D01*
X161951128Y-113300900D01*
X161951125Y-113300900D01*
X161903237Y-113300900D01*
X161854899Y-113283307D01*
X161850063Y-113278874D01*
X161153526Y-112582336D01*
X161131786Y-112535716D01*
X161131500Y-112529162D01*
X161131500Y-111235539D01*
X166282567Y-111235539D01*
X166282567Y-111379461D01*
X166310504Y-111483725D01*
X166319817Y-111518481D01*
X166376570Y-111616780D01*
X166391778Y-111643121D01*
X166425641Y-111676984D01*
X166447381Y-111723603D01*
X166447667Y-111730158D01*
X166447667Y-115964841D01*
X166430074Y-116013179D01*
X166425641Y-116018015D01*
X166391781Y-116051874D01*
X166391777Y-116051880D01*
X166319817Y-116176518D01*
X166301192Y-116246029D01*
X166282567Y-116315539D01*
X166282567Y-116459461D01*
X166310504Y-116563725D01*
X166319817Y-116598481D01*
X166391777Y-116723119D01*
X166391781Y-116723125D01*
X166493541Y-116824885D01*
X166493544Y-116824887D01*
X166493546Y-116824889D01*
X166618187Y-116896850D01*
X166757206Y-116934100D01*
X166757209Y-116934100D01*
X166901125Y-116934100D01*
X166901128Y-116934100D01*
X167040147Y-116896850D01*
X167164788Y-116824889D01*
X167266556Y-116723121D01*
X167338517Y-116598480D01*
X167375767Y-116459461D01*
X167375767Y-116315539D01*
X167338517Y-116176520D01*
X167266556Y-116051879D01*
X167266554Y-116051877D01*
X167266552Y-116051874D01*
X167232693Y-116018015D01*
X167210953Y-115971395D01*
X167210667Y-115964841D01*
X167210667Y-111730158D01*
X167228260Y-111681820D01*
X167232682Y-111676994D01*
X167266556Y-111643121D01*
X167338517Y-111518480D01*
X167375767Y-111379461D01*
X167375767Y-111235539D01*
X167338517Y-111096520D01*
X167266556Y-110971879D01*
X167266554Y-110971877D01*
X167266552Y-110971874D01*
X167232693Y-110938015D01*
X167210953Y-110891395D01*
X167210667Y-110884841D01*
X167210667Y-108141670D01*
X167228260Y-108093332D01*
X167232693Y-108088496D01*
X167527563Y-107793626D01*
X167574183Y-107771886D01*
X167580737Y-107771600D01*
X167628625Y-107771600D01*
X167628628Y-107771600D01*
X167767647Y-107734350D01*
X167892288Y-107662389D01*
X167994056Y-107560621D01*
X168066017Y-107435980D01*
X168103267Y-107296961D01*
X168103267Y-107153039D01*
X168066017Y-107014020D01*
X167994056Y-106889379D01*
X167994054Y-106889377D01*
X167994052Y-106889374D01*
X167892292Y-106787614D01*
X167892286Y-106787610D01*
X167767648Y-106715650D01*
X167732892Y-106706337D01*
X167628628Y-106678400D01*
X167484706Y-106678400D01*
X167401294Y-106700750D01*
X167345685Y-106715650D01*
X167221047Y-106787610D01*
X167221041Y-106787614D01*
X167119281Y-106889374D01*
X167119277Y-106889380D01*
X167047317Y-107014018D01*
X167028692Y-107083529D01*
X167010067Y-107153039D01*
X167010067Y-107153041D01*
X167010067Y-107200928D01*
X166992474Y-107249266D01*
X166988041Y-107254102D01*
X166523894Y-107718248D01*
X166523890Y-107718254D01*
X166473666Y-107805244D01*
X166460666Y-107853760D01*
X166447667Y-107902275D01*
X166447667Y-107902277D01*
X166447667Y-110884841D01*
X166430074Y-110933179D01*
X166425641Y-110938015D01*
X166391781Y-110971874D01*
X166391777Y-110971880D01*
X166319817Y-111096518D01*
X166310036Y-111133022D01*
X166282567Y-111235539D01*
X161131500Y-111235539D01*
X161131500Y-111164169D01*
X161149093Y-111115831D01*
X161153515Y-111111006D01*
X162107219Y-110157301D01*
X162107229Y-110157294D01*
X162184439Y-110080084D01*
X162184443Y-110080080D01*
X162234668Y-109993087D01*
X162260667Y-109896058D01*
X162260667Y-109190158D01*
X162278260Y-109141820D01*
X162282682Y-109136994D01*
X162316556Y-109103121D01*
X162388517Y-108978480D01*
X162425767Y-108839461D01*
X162425767Y-108695539D01*
X162388517Y-108556520D01*
X162316556Y-108431879D01*
X162316554Y-108431877D01*
X162316552Y-108431874D01*
X162214792Y-108330114D01*
X162214786Y-108330110D01*
X162090148Y-108258150D01*
X162055392Y-108248837D01*
X161951128Y-108220900D01*
X161807206Y-108220900D01*
X161723794Y-108243250D01*
X161668185Y-108258150D01*
X161543547Y-108330110D01*
X161543541Y-108330114D01*
X161441781Y-108431874D01*
X161441777Y-108431880D01*
X161369817Y-108556518D01*
X161351596Y-108624523D01*
X161332567Y-108695539D01*
X161332567Y-108839461D01*
X161348728Y-108899775D01*
X161369817Y-108978481D01*
X161379815Y-108995798D01*
X161441778Y-109103121D01*
X161475641Y-109136984D01*
X161497381Y-109183603D01*
X161497667Y-109190158D01*
X161497667Y-109656661D01*
X161480074Y-109704999D01*
X161475641Y-109709835D01*
X160444727Y-110740748D01*
X160444723Y-110740754D01*
X160394499Y-110827744D01*
X160381499Y-110876260D01*
X160368500Y-110924775D01*
X143509500Y-110924775D01*
X143509500Y-107903039D01*
X147665900Y-107903039D01*
X147665900Y-108046961D01*
X147682931Y-108110522D01*
X147703150Y-108185981D01*
X147775110Y-108310619D01*
X147775114Y-108310625D01*
X147876874Y-108412385D01*
X147876877Y-108412387D01*
X147876879Y-108412389D01*
X148001520Y-108484350D01*
X148140539Y-108521600D01*
X148140542Y-108521600D01*
X148284458Y-108521600D01*
X148284461Y-108521600D01*
X148423480Y-108484350D01*
X148548121Y-108412389D01*
X148649889Y-108310621D01*
X148721850Y-108185980D01*
X148759100Y-108046961D01*
X148759100Y-107903039D01*
X148723561Y-107770408D01*
X148721000Y-107750947D01*
X148721000Y-105603039D01*
X150585900Y-105603039D01*
X150585900Y-105746961D01*
X150613837Y-105851225D01*
X150623150Y-105885981D01*
X150652828Y-105937385D01*
X150692300Y-106005753D01*
X150695110Y-106010619D01*
X150695114Y-106010625D01*
X150796874Y-106112385D01*
X150796877Y-106112387D01*
X150796879Y-106112389D01*
X150921520Y-106184350D01*
X151060539Y-106221600D01*
X151060542Y-106221600D01*
X151204458Y-106221600D01*
X151204461Y-106221600D01*
X151343480Y-106184350D01*
X151468121Y-106112389D01*
X151501984Y-106078525D01*
X151548603Y-106056786D01*
X151555158Y-106056500D01*
X171755829Y-106056500D01*
X171804167Y-106074093D01*
X171809003Y-106078526D01*
X174851374Y-109120897D01*
X174873114Y-109167517D01*
X174873400Y-109174071D01*
X174873400Y-109221961D01*
X174882826Y-109257139D01*
X174910650Y-109360981D01*
X174982610Y-109485619D01*
X174982614Y-109485625D01*
X175084374Y-109587385D01*
X175084377Y-109587387D01*
X175084379Y-109587389D01*
X175209020Y-109659350D01*
X175348039Y-109696600D01*
X175348042Y-109696600D01*
X175491958Y-109696600D01*
X175491961Y-109696600D01*
X175630980Y-109659350D01*
X175755621Y-109587389D01*
X175857389Y-109485621D01*
X175929350Y-109360980D01*
X175966600Y-109221961D01*
X175966600Y-109078039D01*
X175929350Y-108939020D01*
X175857389Y-108814379D01*
X175857387Y-108814377D01*
X175857385Y-108814374D01*
X175755625Y-108712614D01*
X175755619Y-108712610D01*
X175726051Y-108695539D01*
X179953400Y-108695539D01*
X179953400Y-108839461D01*
X179969561Y-108899775D01*
X179990650Y-108978481D01*
X180000648Y-108995798D01*
X180062611Y-109103121D01*
X180096474Y-109136984D01*
X180118214Y-109183603D01*
X180118500Y-109190158D01*
X180118500Y-113424841D01*
X180100907Y-113473179D01*
X180096474Y-113478015D01*
X180062614Y-113511874D01*
X180062610Y-113511880D01*
X179990650Y-113636518D01*
X179972025Y-113706029D01*
X179953400Y-113775539D01*
X179953400Y-113919461D01*
X179971127Y-113985619D01*
X179990650Y-114058481D01*
X180062610Y-114183119D01*
X180062614Y-114183125D01*
X180164374Y-114284885D01*
X180164377Y-114284887D01*
X180164379Y-114284889D01*
X180289020Y-114356850D01*
X180428039Y-114394100D01*
X180428042Y-114394100D01*
X180571958Y-114394100D01*
X180571961Y-114394100D01*
X180710980Y-114356850D01*
X180835621Y-114284889D01*
X180937389Y-114183121D01*
X181009350Y-114058480D01*
X181046600Y-113919461D01*
X181046600Y-113775539D01*
X181009350Y-113636520D01*
X180937389Y-113511879D01*
X180937387Y-113511877D01*
X180937385Y-113511874D01*
X180903526Y-113478015D01*
X180881786Y-113431395D01*
X180881500Y-113424841D01*
X180881500Y-111235539D01*
X184903400Y-111235539D01*
X184903400Y-111379461D01*
X184931337Y-111483725D01*
X184940650Y-111518481D01*
X184997403Y-111616780D01*
X185012611Y-111643121D01*
X185046474Y-111676984D01*
X185068214Y-111723603D01*
X185068500Y-111730158D01*
X185068500Y-115964841D01*
X185050907Y-116013179D01*
X185046474Y-116018015D01*
X185012614Y-116051874D01*
X185012610Y-116051880D01*
X184940650Y-116176518D01*
X184922025Y-116246029D01*
X184903400Y-116315539D01*
X184903400Y-116459461D01*
X184931337Y-116563725D01*
X184940650Y-116598481D01*
X185012610Y-116723119D01*
X185012614Y-116723125D01*
X185114374Y-116824885D01*
X185114377Y-116824887D01*
X185114379Y-116824889D01*
X185239020Y-116896850D01*
X185378039Y-116934100D01*
X185378042Y-116934100D01*
X185521958Y-116934100D01*
X185521961Y-116934100D01*
X185660980Y-116896850D01*
X185785621Y-116824889D01*
X185887389Y-116723121D01*
X185959350Y-116598480D01*
X185996600Y-116459461D01*
X185996600Y-116315539D01*
X185959350Y-116176520D01*
X185887389Y-116051879D01*
X185887387Y-116051877D01*
X185887385Y-116051874D01*
X185853526Y-116018015D01*
X185831786Y-115971395D01*
X185831500Y-115964841D01*
X185831500Y-111730158D01*
X185849093Y-111681820D01*
X185853515Y-111676994D01*
X185887389Y-111643121D01*
X185959350Y-111518480D01*
X185996600Y-111379461D01*
X185996600Y-111235539D01*
X185959350Y-111096520D01*
X185887389Y-110971879D01*
X185887387Y-110971877D01*
X185887385Y-110971874D01*
X185853526Y-110938015D01*
X185831786Y-110891395D01*
X185831500Y-110884841D01*
X185831500Y-106429171D01*
X185849093Y-106380833D01*
X185853526Y-106375997D01*
X186160897Y-106068626D01*
X186207517Y-106046886D01*
X186214071Y-106046600D01*
X186261958Y-106046600D01*
X186261961Y-106046600D01*
X186400980Y-106009350D01*
X186525621Y-105937389D01*
X186627389Y-105835621D01*
X186699350Y-105710980D01*
X186736600Y-105571961D01*
X186736600Y-105428039D01*
X186699350Y-105289020D01*
X186627389Y-105164379D01*
X186627387Y-105164377D01*
X186627385Y-105164374D01*
X186525625Y-105062614D01*
X186525619Y-105062610D01*
X186400981Y-104990650D01*
X186366225Y-104981337D01*
X186261961Y-104953400D01*
X186118039Y-104953400D01*
X186034627Y-104975750D01*
X185979018Y-104990650D01*
X185854380Y-105062610D01*
X185854374Y-105062614D01*
X185752614Y-105164374D01*
X185752610Y-105164380D01*
X185680650Y-105289018D01*
X185672483Y-105319499D01*
X185643400Y-105428039D01*
X185643400Y-105428041D01*
X185643400Y-105475929D01*
X185625807Y-105524267D01*
X185621374Y-105529103D01*
X185215753Y-105934724D01*
X185195770Y-105954707D01*
X185144724Y-106005752D01*
X185144723Y-106005754D01*
X185094499Y-106092744D01*
X185084943Y-106128409D01*
X185068500Y-106189775D01*
X185068500Y-106189777D01*
X185068500Y-110884841D01*
X185050907Y-110933179D01*
X185046474Y-110938015D01*
X185012614Y-110971874D01*
X185012610Y-110971880D01*
X184940650Y-111096518D01*
X184930869Y-111133022D01*
X184903400Y-111235539D01*
X180881500Y-111235539D01*
X180881500Y-109190158D01*
X180899093Y-109141820D01*
X180903515Y-109136994D01*
X180937389Y-109103121D01*
X181009350Y-108978480D01*
X181046600Y-108839461D01*
X181046600Y-108695539D01*
X181009350Y-108556520D01*
X180937389Y-108431879D01*
X180937387Y-108431877D01*
X180937385Y-108431874D01*
X180835625Y-108330114D01*
X180835619Y-108330110D01*
X180710981Y-108258150D01*
X180676225Y-108248837D01*
X180571961Y-108220900D01*
X180428039Y-108220900D01*
X180344627Y-108243250D01*
X180289018Y-108258150D01*
X180164380Y-108330110D01*
X180164374Y-108330114D01*
X180062614Y-108431874D01*
X180062610Y-108431880D01*
X179990650Y-108556518D01*
X179972429Y-108624523D01*
X179953400Y-108695539D01*
X175726051Y-108695539D01*
X175630981Y-108640650D01*
X175596225Y-108631337D01*
X175491961Y-108603400D01*
X175491958Y-108603400D01*
X175444071Y-108603400D01*
X175395733Y-108585807D01*
X175390897Y-108581374D01*
X172179251Y-105369727D01*
X172179245Y-105369723D01*
X172164933Y-105361460D01*
X172148685Y-105352079D01*
X172092255Y-105319499D01*
X172067996Y-105312999D01*
X171995225Y-105293500D01*
X171995222Y-105293500D01*
X151555158Y-105293500D01*
X151506820Y-105275907D01*
X151501994Y-105271484D01*
X151468121Y-105237611D01*
X151441780Y-105222403D01*
X151343481Y-105165650D01*
X151308725Y-105156337D01*
X151204461Y-105128400D01*
X151060539Y-105128400D01*
X150977127Y-105150750D01*
X150921518Y-105165650D01*
X150796880Y-105237610D01*
X150796874Y-105237614D01*
X150695114Y-105339374D01*
X150695110Y-105339380D01*
X150623150Y-105464018D01*
X150619959Y-105475929D01*
X150585900Y-105603039D01*
X148721000Y-105603039D01*
X148721000Y-103188039D01*
X158003400Y-103188039D01*
X158003400Y-103331961D01*
X158030695Y-103433828D01*
X158040650Y-103470981D01*
X158112610Y-103595619D01*
X158112614Y-103595625D01*
X158214374Y-103697385D01*
X158214377Y-103697387D01*
X158214379Y-103697389D01*
X158297766Y-103745532D01*
X158337547Y-103768500D01*
X158339020Y-103769350D01*
X158478039Y-103806600D01*
X158478042Y-103806600D01*
X158621958Y-103806600D01*
X158621961Y-103806600D01*
X158754591Y-103771061D01*
X158774053Y-103768500D01*
X167634280Y-103768500D01*
X167653741Y-103771061D01*
X167786372Y-103806600D01*
X167786375Y-103806600D01*
X167930291Y-103806600D01*
X167930294Y-103806600D01*
X168062924Y-103771061D01*
X168082386Y-103768500D01*
X176942614Y-103768500D01*
X176962075Y-103771061D01*
X177094706Y-103806600D01*
X177094709Y-103806600D01*
X177238625Y-103806600D01*
X177238628Y-103806600D01*
X177371258Y-103771061D01*
X177390720Y-103768500D01*
X186250947Y-103768500D01*
X186270408Y-103771061D01*
X186403039Y-103806600D01*
X186403042Y-103806600D01*
X186546958Y-103806600D01*
X186546961Y-103806600D01*
X186685980Y-103769350D01*
X186810621Y-103697389D01*
X186912389Y-103595621D01*
X186984350Y-103470980D01*
X187021600Y-103331961D01*
X187021600Y-103188039D01*
X186984350Y-103049020D01*
X186912389Y-102924379D01*
X186912387Y-102924377D01*
X186912385Y-102924374D01*
X186810625Y-102822614D01*
X186810619Y-102822610D01*
X186685981Y-102750650D01*
X186651225Y-102741337D01*
X186546961Y-102713400D01*
X186403039Y-102713400D01*
X186270408Y-102748938D01*
X186250947Y-102751500D01*
X177390720Y-102751500D01*
X177371258Y-102748938D01*
X177238628Y-102713400D01*
X177094706Y-102713400D01*
X176962075Y-102748938D01*
X176942614Y-102751500D01*
X168082386Y-102751500D01*
X168062924Y-102748938D01*
X167930294Y-102713400D01*
X167786372Y-102713400D01*
X167653741Y-102748938D01*
X167634280Y-102751500D01*
X158774053Y-102751500D01*
X158754591Y-102748938D01*
X158621961Y-102713400D01*
X158478039Y-102713400D01*
X158394627Y-102735750D01*
X158339018Y-102750650D01*
X158214380Y-102822610D01*
X158214374Y-102822614D01*
X158112614Y-102924374D01*
X158112610Y-102924380D01*
X158040650Y-103049018D01*
X158022025Y-103118529D01*
X158003400Y-103188039D01*
X148721000Y-103188039D01*
X148721000Y-101189275D01*
X148738593Y-101140937D01*
X148743015Y-101136112D01*
X155524608Y-94354518D01*
X155571227Y-94332779D01*
X155601019Y-94336174D01*
X155716224Y-94373607D01*
X155716233Y-94373608D01*
X155716237Y-94373610D01*
X155911269Y-94404500D01*
X155911273Y-94404500D01*
X156108727Y-94404500D01*
X156108731Y-94404500D01*
X156275173Y-94378138D01*
X156325667Y-94387953D01*
X156340110Y-94399238D01*
X157622772Y-95681901D01*
X157622771Y-95681901D01*
X157738718Y-95748843D01*
X157738721Y-95748844D01*
X157738726Y-95748847D01*
X157868055Y-95783500D01*
X157868058Y-95783500D01*
X163260275Y-95783500D01*
X163260278Y-95783500D01*
X163389607Y-95748847D01*
X163505560Y-95681901D01*
X164832942Y-94354516D01*
X164879560Y-94332778D01*
X164909351Y-94336172D01*
X165024570Y-94373610D01*
X165219602Y-94404500D01*
X165219606Y-94404500D01*
X165417060Y-94404500D01*
X165417064Y-94404500D01*
X165602212Y-94375175D01*
X165652705Y-94384990D01*
X165667148Y-94396275D01*
X166877771Y-95606899D01*
X166877773Y-95606900D01*
X166877774Y-95606901D01*
X166993726Y-95673847D01*
X167123055Y-95708500D01*
X167123058Y-95708500D01*
X172643609Y-95708500D01*
X172643612Y-95708500D01*
X172772941Y-95673847D01*
X172888894Y-95606901D01*
X174141276Y-94354516D01*
X174187894Y-94332778D01*
X174217685Y-94336172D01*
X174332904Y-94373610D01*
X174527936Y-94404500D01*
X174527940Y-94404500D01*
X174725394Y-94404500D01*
X174725398Y-94404500D01*
X174799757Y-94392722D01*
X174850251Y-94402537D01*
X174864695Y-94413822D01*
X176032771Y-95581899D01*
X176032773Y-95581900D01*
X176032774Y-95581901D01*
X176148726Y-95648847D01*
X176278055Y-95683500D01*
X176278058Y-95683500D01*
X181976942Y-95683500D01*
X181976945Y-95683500D01*
X182106274Y-95648847D01*
X182222227Y-95581901D01*
X183449608Y-94354518D01*
X183496227Y-94332779D01*
X183526019Y-94336174D01*
X183641224Y-94373607D01*
X183641233Y-94373608D01*
X183641237Y-94373610D01*
X183836269Y-94404500D01*
X183836273Y-94404500D01*
X184033727Y-94404500D01*
X184033731Y-94404500D01*
X184228763Y-94373610D01*
X184416561Y-94312591D01*
X184592501Y-94222944D01*
X184752252Y-94106879D01*
X184891879Y-93967252D01*
X185007944Y-93807501D01*
X185078298Y-93669425D01*
X185115917Y-93634345D01*
X185167286Y-93631653D01*
X185208368Y-93662610D01*
X185220500Y-93703567D01*
X185220500Y-93948244D01*
X185220501Y-93948259D01*
X185226960Y-94008343D01*
X185226961Y-94008348D01*
X185277655Y-94144262D01*
X185277659Y-94144269D01*
X185364595Y-94260404D01*
X185480730Y-94347340D01*
X185480737Y-94347344D01*
X185616649Y-94398037D01*
X185616653Y-94398038D01*
X185616658Y-94398040D01*
X185676745Y-94404500D01*
X187273254Y-94404499D01*
X187333342Y-94398040D01*
X187333346Y-94398038D01*
X187333348Y-94398038D01*
X187469262Y-94347344D01*
X187469262Y-94347343D01*
X187469267Y-94347342D01*
X187585404Y-94260404D01*
X187672342Y-94144267D01*
X187723040Y-94008342D01*
X187729500Y-93948255D01*
X187729499Y-92351746D01*
X187723040Y-92291658D01*
X187723038Y-92291654D01*
X187723038Y-92291651D01*
X187672344Y-92155737D01*
X187672340Y-92155730D01*
X187585404Y-92039595D01*
X187469269Y-91952659D01*
X187469262Y-91952655D01*
X187333350Y-91901962D01*
X187333340Y-91901959D01*
X187290750Y-91897381D01*
X187273255Y-91895500D01*
X187273252Y-91895500D01*
X185676755Y-91895500D01*
X185676740Y-91895501D01*
X185616656Y-91901960D01*
X185616651Y-91901961D01*
X185480737Y-91952655D01*
X185480730Y-91952659D01*
X185364595Y-92039595D01*
X185277659Y-92155730D01*
X185277655Y-92155737D01*
X185226962Y-92291649D01*
X185226959Y-92291659D01*
X185220500Y-92351741D01*
X185220500Y-92596431D01*
X185202907Y-92644769D01*
X185158358Y-92670489D01*
X185107700Y-92661556D01*
X185078297Y-92630572D01*
X185007942Y-92492496D01*
X185007943Y-92492496D01*
X184891885Y-92332755D01*
X184891874Y-92332742D01*
X184752257Y-92193125D01*
X184752244Y-92193114D01*
X184592503Y-92077057D01*
X184416563Y-91987409D01*
X184228767Y-91926391D01*
X184228755Y-91926388D01*
X184033733Y-91895500D01*
X184033731Y-91895500D01*
X183836269Y-91895500D01*
X183836266Y-91895500D01*
X183641244Y-91926388D01*
X183641232Y-91926391D01*
X183453436Y-91987409D01*
X183277496Y-92077057D01*
X183117755Y-92193114D01*
X183117742Y-92193125D01*
X182978125Y-92332742D01*
X182978114Y-92332755D01*
X182862057Y-92492496D01*
X182772409Y-92668436D01*
X182711391Y-92856232D01*
X182711388Y-92856244D01*
X182680500Y-93051266D01*
X182680500Y-93248733D01*
X182711389Y-93443760D01*
X182711390Y-93443763D01*
X182748825Y-93558979D01*
X182747029Y-93610388D01*
X182730479Y-93635391D01*
X181721398Y-94644474D01*
X181674778Y-94666214D01*
X181668224Y-94666500D01*
X176586775Y-94666500D01*
X176538437Y-94648907D01*
X176533601Y-94644474D01*
X176422000Y-94532873D01*
X176400260Y-94486253D01*
X176413574Y-94436566D01*
X176455711Y-94407061D01*
X176475166Y-94404499D01*
X177964921Y-94404499D01*
X178025009Y-94398040D01*
X178025013Y-94398038D01*
X178025015Y-94398038D01*
X178160929Y-94347344D01*
X178160929Y-94347343D01*
X178160934Y-94347342D01*
X178277071Y-94260404D01*
X178364009Y-94144267D01*
X178414707Y-94008342D01*
X178421167Y-93948255D01*
X178421166Y-92351746D01*
X178414707Y-92291658D01*
X178414705Y-92291654D01*
X178414705Y-92291651D01*
X178364011Y-92155737D01*
X178364007Y-92155730D01*
X178277071Y-92039595D01*
X178160936Y-91952659D01*
X178160929Y-91952655D01*
X178025017Y-91901962D01*
X178025007Y-91901959D01*
X177982417Y-91897381D01*
X177964922Y-91895500D01*
X177964919Y-91895500D01*
X176368422Y-91895500D01*
X176368407Y-91895501D01*
X176308323Y-91901960D01*
X176308318Y-91901961D01*
X176172404Y-91952655D01*
X176172397Y-91952659D01*
X176056262Y-92039595D01*
X175969326Y-92155730D01*
X175969322Y-92155737D01*
X175918629Y-92291649D01*
X175918626Y-92291659D01*
X175912167Y-92351741D01*
X175912167Y-92596431D01*
X175894574Y-92644769D01*
X175850025Y-92670489D01*
X175799367Y-92661556D01*
X175769964Y-92630572D01*
X175699609Y-92492496D01*
X175699610Y-92492496D01*
X175583552Y-92332755D01*
X175583541Y-92332742D01*
X175443924Y-92193125D01*
X175443911Y-92193114D01*
X175284170Y-92077057D01*
X175108230Y-91987409D01*
X174920434Y-91926391D01*
X174920422Y-91926388D01*
X174725400Y-91895500D01*
X174725398Y-91895500D01*
X174527936Y-91895500D01*
X174527933Y-91895500D01*
X174332911Y-91926388D01*
X174332899Y-91926391D01*
X174145103Y-91987409D01*
X173969163Y-92077057D01*
X173809422Y-92193114D01*
X173809409Y-92193125D01*
X173669792Y-92332742D01*
X173669781Y-92332755D01*
X173553724Y-92492496D01*
X173464076Y-92668436D01*
X173403058Y-92856232D01*
X173403055Y-92856244D01*
X173372167Y-93051266D01*
X173372167Y-93248733D01*
X173403055Y-93443755D01*
X173403055Y-93443756D01*
X173440493Y-93558979D01*
X173438697Y-93610388D01*
X173422147Y-93635391D01*
X172388065Y-94669474D01*
X172341445Y-94691214D01*
X172334891Y-94691500D01*
X167431776Y-94691500D01*
X167383438Y-94673907D01*
X167378601Y-94669474D01*
X167242001Y-94532873D01*
X167220262Y-94486253D01*
X167233576Y-94436566D01*
X167275713Y-94407061D01*
X167295176Y-94404499D01*
X168656577Y-94404499D01*
X168656587Y-94404499D01*
X168716675Y-94398040D01*
X168716679Y-94398038D01*
X168716681Y-94398038D01*
X168852595Y-94347344D01*
X168852595Y-94347343D01*
X168852600Y-94347342D01*
X168968737Y-94260404D01*
X169055675Y-94144267D01*
X169106373Y-94008342D01*
X169112833Y-93948255D01*
X169112832Y-92351746D01*
X169106373Y-92291658D01*
X169106371Y-92291654D01*
X169106371Y-92291651D01*
X169055677Y-92155737D01*
X169055673Y-92155730D01*
X168968737Y-92039595D01*
X168852602Y-91952659D01*
X168852595Y-91952655D01*
X168716683Y-91901962D01*
X168716673Y-91901959D01*
X168674083Y-91897381D01*
X168656588Y-91895500D01*
X168656585Y-91895500D01*
X167060088Y-91895500D01*
X167060073Y-91895501D01*
X166999989Y-91901960D01*
X166999984Y-91901961D01*
X166864070Y-91952655D01*
X166864063Y-91952659D01*
X166747928Y-92039595D01*
X166660992Y-92155730D01*
X166660988Y-92155737D01*
X166610295Y-92291649D01*
X166610292Y-92291659D01*
X166603833Y-92351741D01*
X166603833Y-92596431D01*
X166586240Y-92644769D01*
X166541691Y-92670489D01*
X166491033Y-92661556D01*
X166461630Y-92630572D01*
X166391275Y-92492496D01*
X166391276Y-92492496D01*
X166275218Y-92332755D01*
X166275207Y-92332742D01*
X166135590Y-92193125D01*
X166135577Y-92193114D01*
X165975836Y-92077057D01*
X165799896Y-91987409D01*
X165612100Y-91926391D01*
X165612088Y-91926388D01*
X165417066Y-91895500D01*
X165417064Y-91895500D01*
X165219602Y-91895500D01*
X165219599Y-91895500D01*
X165024577Y-91926388D01*
X165024565Y-91926391D01*
X164836769Y-91987409D01*
X164660829Y-92077057D01*
X164501088Y-92193114D01*
X164501075Y-92193125D01*
X164361458Y-92332742D01*
X164361447Y-92332755D01*
X164245390Y-92492496D01*
X164155742Y-92668436D01*
X164094724Y-92856232D01*
X164094721Y-92856244D01*
X164063833Y-93051266D01*
X164063833Y-93248733D01*
X164094721Y-93443755D01*
X164094721Y-93443756D01*
X164132159Y-93558979D01*
X164130363Y-93610388D01*
X164113813Y-93635391D01*
X163004731Y-94744474D01*
X162958111Y-94766214D01*
X162951557Y-94766500D01*
X158176776Y-94766500D01*
X158128438Y-94748907D01*
X158123602Y-94744474D01*
X157912001Y-94532873D01*
X157890261Y-94486253D01*
X157903575Y-94436566D01*
X157945712Y-94407061D01*
X157965175Y-94404499D01*
X159348244Y-94404499D01*
X159348254Y-94404499D01*
X159408342Y-94398040D01*
X159408346Y-94398038D01*
X159408348Y-94398038D01*
X159544262Y-94347344D01*
X159544262Y-94347343D01*
X159544267Y-94347342D01*
X159660404Y-94260404D01*
X159747342Y-94144267D01*
X159798040Y-94008342D01*
X159804500Y-93948255D01*
X159804499Y-92351746D01*
X159798040Y-92291658D01*
X159798038Y-92291654D01*
X159798038Y-92291651D01*
X159747344Y-92155737D01*
X159747340Y-92155730D01*
X159660404Y-92039595D01*
X159544269Y-91952659D01*
X159544262Y-91952655D01*
X159408350Y-91901962D01*
X159408340Y-91901959D01*
X159365750Y-91897381D01*
X159348255Y-91895500D01*
X159348252Y-91895500D01*
X157751755Y-91895500D01*
X157751740Y-91895501D01*
X157691656Y-91901960D01*
X157691651Y-91901961D01*
X157555737Y-91952655D01*
X157555730Y-91952659D01*
X157439595Y-92039595D01*
X157352659Y-92155730D01*
X157352655Y-92155737D01*
X157301962Y-92291649D01*
X157301959Y-92291659D01*
X157295500Y-92351741D01*
X157295500Y-92596431D01*
X157277907Y-92644769D01*
X157233358Y-92670489D01*
X157182700Y-92661556D01*
X157153297Y-92630572D01*
X157082942Y-92492496D01*
X157082943Y-92492496D01*
X156966885Y-92332755D01*
X156966874Y-92332742D01*
X156827257Y-92193125D01*
X156827244Y-92193114D01*
X156667503Y-92077057D01*
X156491563Y-91987409D01*
X156303767Y-91926391D01*
X156303755Y-91926388D01*
X156108733Y-91895500D01*
X156108731Y-91895500D01*
X155911269Y-91895500D01*
X155911266Y-91895500D01*
X155716244Y-91926388D01*
X155716232Y-91926391D01*
X155528436Y-91987409D01*
X155352496Y-92077057D01*
X155192755Y-92193114D01*
X155192742Y-92193125D01*
X155053125Y-92332742D01*
X155053114Y-92332755D01*
X154937057Y-92492496D01*
X154847409Y-92668436D01*
X154786391Y-92856232D01*
X154786388Y-92856244D01*
X154755500Y-93051266D01*
X154755500Y-93248733D01*
X154786389Y-93443760D01*
X154786390Y-93443763D01*
X154823825Y-93558979D01*
X154822029Y-93610388D01*
X154805479Y-93635391D01*
X147805596Y-100635274D01*
X147750858Y-100730087D01*
X147750857Y-100730089D01*
X147738653Y-100751226D01*
X147704000Y-100880555D01*
X147704000Y-100880557D01*
X147704000Y-107750947D01*
X147701721Y-107768256D01*
X147701600Y-107769795D01*
X147701525Y-107770081D01*
X147665900Y-107903039D01*
X143509500Y-107903039D01*
X143509500Y-104179219D01*
X143507283Y-104145390D01*
X143507282Y-104145387D01*
X143507281Y-104145361D01*
X143504719Y-104125898D01*
X143501143Y-104105621D01*
X143500000Y-104092561D01*
X143500000Y-103778827D01*
X143517593Y-103730489D01*
X143522026Y-103725653D01*
X144629053Y-102618626D01*
X144675673Y-102596886D01*
X144682227Y-102596600D01*
X144801958Y-102596600D01*
X144801961Y-102596600D01*
X144940980Y-102559350D01*
X145065621Y-102487389D01*
X145167389Y-102385621D01*
X145239350Y-102260980D01*
X145276600Y-102121961D01*
X145276600Y-101978039D01*
X145239350Y-101839020D01*
X145167389Y-101714379D01*
X145167387Y-101714377D01*
X145167385Y-101714374D01*
X145065625Y-101612614D01*
X145065619Y-101612610D01*
X144940981Y-101540650D01*
X144906225Y-101531337D01*
X144801961Y-101503400D01*
X144658039Y-101503400D01*
X144574627Y-101525750D01*
X144519018Y-101540650D01*
X144394380Y-101612610D01*
X144394374Y-101612614D01*
X144292614Y-101714374D01*
X144292610Y-101714380D01*
X144220650Y-101839018D01*
X144202025Y-101908529D01*
X144183400Y-101978039D01*
X144183400Y-101978041D01*
X144183400Y-102097771D01*
X144165807Y-102146109D01*
X144161374Y-102150945D01*
X143637874Y-102674445D01*
X143591254Y-102696185D01*
X143541567Y-102682871D01*
X143512062Y-102640734D01*
X143509500Y-102621271D01*
X143509500Y-89880500D01*
X143527093Y-89832162D01*
X143571642Y-89806442D01*
X143584700Y-89805300D01*
X191869500Y-89805300D01*
X191917838Y-89822893D01*
G37*
%TD.AperFunction*%
%TD*%
%TA.AperFunction,Conductor*%
%TO.N,GNDPWR*%
G36*
X128188638Y-89822893D02*
G01*
X128214358Y-89867442D01*
X128215500Y-89880500D01*
X128215500Y-95136775D01*
X128197907Y-95185113D01*
X128153358Y-95210833D01*
X128102700Y-95201900D01*
X128069635Y-95162495D01*
X128068781Y-95160014D01*
X128066071Y-95151673D01*
X127979819Y-94982394D01*
X127868148Y-94828692D01*
X127868146Y-94828690D01*
X127868139Y-94828682D01*
X127733817Y-94694360D01*
X127733809Y-94694353D01*
X127580107Y-94582682D01*
X127580108Y-94582682D01*
X127580106Y-94582681D01*
X127410827Y-94496429D01*
X127410820Y-94496426D01*
X127410816Y-94496425D01*
X127230152Y-94437723D01*
X127230137Y-94437720D01*
X127042495Y-94408000D01*
X127042493Y-94408000D01*
X126757507Y-94408000D01*
X126757504Y-94408000D01*
X126569862Y-94437720D01*
X126569847Y-94437723D01*
X126389183Y-94496425D01*
X126389175Y-94496428D01*
X126389173Y-94496429D01*
X126389169Y-94496430D01*
X126389169Y-94496431D01*
X126219892Y-94582682D01*
X126066190Y-94694353D01*
X126066182Y-94694360D01*
X125931860Y-94828682D01*
X125931853Y-94828690D01*
X125820182Y-94982392D01*
X125733931Y-95151669D01*
X125733925Y-95151683D01*
X125675223Y-95332347D01*
X125675220Y-95332362D01*
X125645500Y-95520004D01*
X125645500Y-95709995D01*
X125675220Y-95897637D01*
X125675223Y-95897652D01*
X125731219Y-96069987D01*
X125733929Y-96078327D01*
X125820181Y-96247606D01*
X125921054Y-96386445D01*
X125931853Y-96401309D01*
X125931860Y-96401317D01*
X126066182Y-96535639D01*
X126066190Y-96535646D01*
X126066192Y-96535648D01*
X126219894Y-96647319D01*
X126389173Y-96733571D01*
X126419740Y-96743502D01*
X126569847Y-96792276D01*
X126569855Y-96792277D01*
X126569860Y-96792279D01*
X126609303Y-96798526D01*
X126654294Y-96823464D01*
X126672729Y-96871487D01*
X126655982Y-96920124D01*
X126611890Y-96946618D01*
X126597540Y-96948000D01*
X125874932Y-96948000D01*
X125874931Y-96948001D01*
X125800699Y-96962766D01*
X125716516Y-97019016D01*
X125660266Y-97103198D01*
X125660265Y-97103200D01*
X125645500Y-97177432D01*
X125645500Y-99132567D01*
X125645501Y-99132568D01*
X125660266Y-99206801D01*
X125716516Y-99290984D01*
X125800699Y-99347234D01*
X125874933Y-99362000D01*
X127925066Y-99361999D01*
X127925067Y-99361999D01*
X127925067Y-99361998D01*
X127999301Y-99347234D01*
X128083484Y-99290984D01*
X128083486Y-99290980D01*
X128087126Y-99287342D01*
X128133746Y-99265602D01*
X128183433Y-99278916D01*
X128212938Y-99321053D01*
X128215500Y-99340516D01*
X128215500Y-106245108D01*
X128197907Y-106293446D01*
X128153358Y-106319166D01*
X128102700Y-106310233D01*
X128069635Y-106270828D01*
X128068781Y-106268347D01*
X128067431Y-106264192D01*
X128066071Y-106260006D01*
X127979819Y-106090727D01*
X127868148Y-105937025D01*
X127868146Y-105937023D01*
X127868139Y-105937015D01*
X127733817Y-105802693D01*
X127733809Y-105802686D01*
X127709299Y-105784878D01*
X127580106Y-105691014D01*
X127410827Y-105604762D01*
X127410820Y-105604759D01*
X127410816Y-105604758D01*
X127230152Y-105546056D01*
X127230137Y-105546053D01*
X127042495Y-105516333D01*
X127042493Y-105516333D01*
X126757507Y-105516333D01*
X126757504Y-105516333D01*
X126569862Y-105546053D01*
X126569847Y-105546056D01*
X126389183Y-105604758D01*
X126389175Y-105604761D01*
X126389173Y-105604762D01*
X126389169Y-105604763D01*
X126389169Y-105604764D01*
X126219892Y-105691015D01*
X126066190Y-105802686D01*
X126066182Y-105802693D01*
X125931860Y-105937015D01*
X125931853Y-105937023D01*
X125820182Y-106090725D01*
X125733931Y-106260002D01*
X125733925Y-106260016D01*
X125675223Y-106440680D01*
X125675220Y-106440695D01*
X125645500Y-106628337D01*
X125645500Y-106818328D01*
X125675220Y-107005970D01*
X125675223Y-107005985D01*
X125731219Y-107178320D01*
X125733929Y-107186660D01*
X125809754Y-107335475D01*
X125820182Y-107355940D01*
X125931853Y-107509642D01*
X125931860Y-107509650D01*
X126066182Y-107643972D01*
X126066190Y-107643979D01*
X126066192Y-107643981D01*
X126219894Y-107755652D01*
X126389173Y-107841904D01*
X126418855Y-107851548D01*
X126569847Y-107900609D01*
X126569855Y-107900610D01*
X126569860Y-107900612D01*
X126609303Y-107906859D01*
X126654294Y-107931797D01*
X126672729Y-107979820D01*
X126655982Y-108028457D01*
X126611890Y-108054951D01*
X126597540Y-108056333D01*
X125874932Y-108056333D01*
X125874931Y-108056334D01*
X125800699Y-108071099D01*
X125716516Y-108127349D01*
X125660266Y-108211531D01*
X125660265Y-108211533D01*
X125645500Y-108285765D01*
X125645500Y-110240900D01*
X125645501Y-110240901D01*
X125654680Y-110287049D01*
X125660266Y-110315134D01*
X125716516Y-110399317D01*
X125800699Y-110455567D01*
X125874933Y-110470333D01*
X127925066Y-110470332D01*
X127925067Y-110470332D01*
X127925067Y-110470331D01*
X127999301Y-110455567D01*
X128083484Y-110399317D01*
X128083486Y-110399313D01*
X128087126Y-110395675D01*
X128133746Y-110373935D01*
X128183433Y-110387249D01*
X128212938Y-110429386D01*
X128215500Y-110448849D01*
X128215500Y-117353442D01*
X128197907Y-117401780D01*
X128153358Y-117427500D01*
X128102700Y-117418567D01*
X128069635Y-117379162D01*
X128068781Y-117376681D01*
X128066071Y-117368340D01*
X127979819Y-117199061D01*
X127868148Y-117045359D01*
X127868146Y-117045357D01*
X127868139Y-117045349D01*
X127733817Y-116911027D01*
X127733809Y-116911020D01*
X127580107Y-116799349D01*
X127580108Y-116799349D01*
X127580106Y-116799348D01*
X127410827Y-116713096D01*
X127410820Y-116713093D01*
X127410816Y-116713092D01*
X127230152Y-116654390D01*
X127230137Y-116654387D01*
X127042495Y-116624667D01*
X127042493Y-116624667D01*
X126757507Y-116624667D01*
X126757504Y-116624667D01*
X126569862Y-116654387D01*
X126569847Y-116654390D01*
X126389183Y-116713092D01*
X126389175Y-116713095D01*
X126389173Y-116713096D01*
X126389169Y-116713097D01*
X126389169Y-116713098D01*
X126219892Y-116799349D01*
X126066190Y-116911020D01*
X126066182Y-116911027D01*
X125931860Y-117045349D01*
X125931853Y-117045357D01*
X125820182Y-117199059D01*
X125733931Y-117368336D01*
X125733925Y-117368350D01*
X125675223Y-117549014D01*
X125675220Y-117549029D01*
X125645500Y-117736671D01*
X125645500Y-117926662D01*
X125675220Y-118114304D01*
X125675223Y-118114319D01*
X125731219Y-118286654D01*
X125733929Y-118294994D01*
X125820181Y-118464273D01*
X125831244Y-118479499D01*
X125931853Y-118617976D01*
X125931860Y-118617984D01*
X126066182Y-118752306D01*
X126066190Y-118752313D01*
X126066192Y-118752315D01*
X126219894Y-118863986D01*
X126389173Y-118950238D01*
X126419740Y-118960169D01*
X126569847Y-119008943D01*
X126569855Y-119008944D01*
X126569860Y-119008946D01*
X126609303Y-119015193D01*
X126654294Y-119040131D01*
X126672729Y-119088154D01*
X126655982Y-119136791D01*
X126611890Y-119163285D01*
X126597540Y-119164667D01*
X125874932Y-119164667D01*
X125874931Y-119164668D01*
X125800699Y-119179433D01*
X125716516Y-119235683D01*
X125660266Y-119319865D01*
X125660265Y-119319867D01*
X125645500Y-119394099D01*
X125645500Y-121349234D01*
X125645501Y-121349235D01*
X125660266Y-121423468D01*
X125716516Y-121507651D01*
X125800699Y-121563901D01*
X125874933Y-121578667D01*
X127925066Y-121578666D01*
X127925067Y-121578666D01*
X127925067Y-121578665D01*
X127999301Y-121563901D01*
X128083484Y-121507651D01*
X128083486Y-121507647D01*
X128087126Y-121504009D01*
X128133746Y-121482269D01*
X128183433Y-121495583D01*
X128212938Y-121537720D01*
X128215500Y-121557183D01*
X128215500Y-128461775D01*
X128197907Y-128510113D01*
X128153358Y-128535833D01*
X128102700Y-128526900D01*
X128069635Y-128487495D01*
X128068781Y-128485014D01*
X128066605Y-128478318D01*
X128066071Y-128476673D01*
X127979819Y-128307394D01*
X127868148Y-128153692D01*
X127868146Y-128153690D01*
X127868139Y-128153682D01*
X127733817Y-128019360D01*
X127733809Y-128019353D01*
X127664787Y-127969205D01*
X127580106Y-127907681D01*
X127410827Y-127821429D01*
X127410820Y-127821426D01*
X127410816Y-127821425D01*
X127230152Y-127762723D01*
X127230137Y-127762720D01*
X127042495Y-127733000D01*
X127042493Y-127733000D01*
X126757507Y-127733000D01*
X126757504Y-127733000D01*
X126569862Y-127762720D01*
X126569847Y-127762723D01*
X126389183Y-127821425D01*
X126389175Y-127821428D01*
X126389173Y-127821429D01*
X126389169Y-127821430D01*
X126389169Y-127821431D01*
X126219892Y-127907682D01*
X126066190Y-128019353D01*
X126066182Y-128019360D01*
X125931860Y-128153682D01*
X125931853Y-128153690D01*
X125820182Y-128307392D01*
X125733931Y-128476669D01*
X125733925Y-128476683D01*
X125675223Y-128657347D01*
X125675220Y-128657362D01*
X125645500Y-128845004D01*
X125645500Y-129034995D01*
X125675220Y-129222637D01*
X125675223Y-129222652D01*
X125724238Y-129373502D01*
X125733929Y-129403327D01*
X125820181Y-129572606D01*
X125838242Y-129597464D01*
X125931853Y-129726309D01*
X125931860Y-129726317D01*
X126066182Y-129860639D01*
X126066190Y-129860646D01*
X126066192Y-129860648D01*
X126219894Y-129972319D01*
X126389173Y-130058571D01*
X126397828Y-130061383D01*
X126569847Y-130117276D01*
X126569855Y-130117277D01*
X126569860Y-130117279D01*
X126609303Y-130123526D01*
X126654294Y-130148464D01*
X126672729Y-130196487D01*
X126655982Y-130245124D01*
X126611890Y-130271618D01*
X126597540Y-130273000D01*
X125874932Y-130273000D01*
X125874931Y-130273001D01*
X125800699Y-130287766D01*
X125716516Y-130344016D01*
X125660266Y-130428198D01*
X125660265Y-130428200D01*
X125645500Y-130502432D01*
X125645500Y-132457567D01*
X125645501Y-132457568D01*
X125660266Y-132531801D01*
X125716516Y-132615984D01*
X125800699Y-132672234D01*
X125874933Y-132687000D01*
X127925066Y-132686999D01*
X127925067Y-132686999D01*
X127925067Y-132686998D01*
X127999301Y-132672234D01*
X128083484Y-132615984D01*
X128083486Y-132615980D01*
X128087126Y-132612342D01*
X128133746Y-132590602D01*
X128183433Y-132603916D01*
X128212938Y-132646053D01*
X128215500Y-132665516D01*
X128215500Y-141619500D01*
X128197907Y-141667838D01*
X128153358Y-141693558D01*
X128140300Y-141694700D01*
X110380500Y-141694700D01*
X110332162Y-141677107D01*
X110306442Y-141632558D01*
X110305300Y-141619500D01*
X110305300Y-127276742D01*
X113045500Y-127276742D01*
X113045500Y-129673257D01*
X113051959Y-129733339D01*
X113051960Y-129733342D01*
X113058053Y-129749678D01*
X113102658Y-129869267D01*
X113102659Y-129869268D01*
X113102659Y-129869269D01*
X113189595Y-129985404D01*
X113290381Y-130060850D01*
X113305733Y-130072342D01*
X113441659Y-130123040D01*
X113501746Y-130129500D01*
X113501754Y-130129500D01*
X115898246Y-130129500D01*
X115898254Y-130129500D01*
X115958341Y-130123040D01*
X116094267Y-130072342D01*
X116210404Y-129985404D01*
X116297342Y-129869267D01*
X116348040Y-129733341D01*
X116354500Y-129673254D01*
X116354500Y-127276746D01*
X116348040Y-127216659D01*
X116297342Y-127080733D01*
X116297340Y-127080730D01*
X116210404Y-126964595D01*
X116094269Y-126877659D01*
X116094267Y-126877658D01*
X115975881Y-126833502D01*
X115958342Y-126826960D01*
X115958339Y-126826959D01*
X115898257Y-126820500D01*
X115898254Y-126820500D01*
X113501746Y-126820500D01*
X113501742Y-126820500D01*
X113441660Y-126826959D01*
X113441657Y-126826960D01*
X113340261Y-126864779D01*
X113305733Y-126877658D01*
X113305732Y-126877658D01*
X113305731Y-126877659D01*
X113305730Y-126877659D01*
X113189595Y-126964595D01*
X113102659Y-127080730D01*
X113102659Y-127080731D01*
X113051960Y-127216657D01*
X113051959Y-127216660D01*
X113045500Y-127276742D01*
X110305300Y-127276742D01*
X110305300Y-115626742D01*
X113045500Y-115626742D01*
X113045500Y-118023257D01*
X113051959Y-118083339D01*
X113051960Y-118083341D01*
X113102658Y-118219267D01*
X113102659Y-118219268D01*
X113102659Y-118219269D01*
X113189595Y-118335404D01*
X113305730Y-118422340D01*
X113305733Y-118422342D01*
X113441659Y-118473040D01*
X113501746Y-118479500D01*
X113501754Y-118479500D01*
X115898246Y-118479500D01*
X115898254Y-118479500D01*
X115958341Y-118473040D01*
X116094267Y-118422342D01*
X116210404Y-118335404D01*
X116297342Y-118219267D01*
X116348040Y-118083341D01*
X116354500Y-118023254D01*
X116354500Y-115626746D01*
X116348040Y-115566659D01*
X116297342Y-115430733D01*
X116297340Y-115430730D01*
X116210404Y-115314595D01*
X116094269Y-115227659D01*
X116094267Y-115227658D01*
X116039198Y-115207118D01*
X115958342Y-115176960D01*
X115958339Y-115176959D01*
X115898257Y-115170500D01*
X115898254Y-115170500D01*
X113501746Y-115170500D01*
X113501742Y-115170500D01*
X113441660Y-115176959D01*
X113441657Y-115176960D01*
X113340261Y-115214779D01*
X113305733Y-115227658D01*
X113305732Y-115227658D01*
X113305731Y-115227659D01*
X113305730Y-115227659D01*
X113189595Y-115314595D01*
X113102659Y-115430730D01*
X113102659Y-115430731D01*
X113051960Y-115566657D01*
X113051959Y-115566660D01*
X113045500Y-115626742D01*
X110305300Y-115626742D01*
X110305300Y-103976742D01*
X113045500Y-103976742D01*
X113045500Y-106373257D01*
X113051959Y-106433339D01*
X113051960Y-106433341D01*
X113102658Y-106569267D01*
X113102659Y-106569268D01*
X113102659Y-106569269D01*
X113189595Y-106685404D01*
X113305730Y-106772340D01*
X113305733Y-106772342D01*
X113441659Y-106823040D01*
X113501746Y-106829500D01*
X113501754Y-106829500D01*
X115898246Y-106829500D01*
X115898254Y-106829500D01*
X115958341Y-106823040D01*
X116094267Y-106772342D01*
X116210404Y-106685404D01*
X116297342Y-106569267D01*
X116348040Y-106433341D01*
X116354500Y-106373254D01*
X116354500Y-103976746D01*
X116348040Y-103916659D01*
X116297342Y-103780733D01*
X116289007Y-103769598D01*
X116210404Y-103664595D01*
X116094269Y-103577659D01*
X116094267Y-103577658D01*
X116039198Y-103557118D01*
X115958342Y-103526960D01*
X115958339Y-103526959D01*
X115898257Y-103520500D01*
X115898254Y-103520500D01*
X113501746Y-103520500D01*
X113501742Y-103520500D01*
X113441660Y-103526959D01*
X113441657Y-103526960D01*
X113340261Y-103564779D01*
X113305733Y-103577658D01*
X113305732Y-103577658D01*
X113305731Y-103577659D01*
X113305730Y-103577659D01*
X113189595Y-103664595D01*
X113102659Y-103780730D01*
X113102659Y-103780731D01*
X113051960Y-103916657D01*
X113051959Y-103916660D01*
X113045500Y-103976742D01*
X110305300Y-103976742D01*
X110305300Y-96475195D01*
X112540500Y-96475195D01*
X112540500Y-100524810D01*
X112541486Y-100547404D01*
X112542627Y-100560452D01*
X112543862Y-100571729D01*
X112576405Y-100667601D01*
X112576407Y-100667605D01*
X112576408Y-100667607D01*
X112602128Y-100712156D01*
X112651548Y-100773732D01*
X112738110Y-100826258D01*
X112786448Y-100843851D01*
X112875195Y-100859499D01*
X112875196Y-100859500D01*
X112875200Y-100859500D01*
X117465300Y-100859500D01*
X117513638Y-100877093D01*
X117539358Y-100921642D01*
X117540500Y-100934700D01*
X117540500Y-107665300D01*
X117522907Y-107713638D01*
X117478358Y-107739358D01*
X117465300Y-107740500D01*
X112875190Y-107740500D01*
X112852595Y-107741486D01*
X112839547Y-107742627D01*
X112828270Y-107743862D01*
X112732398Y-107776405D01*
X112687844Y-107802128D01*
X112626267Y-107851548D01*
X112573742Y-107938108D01*
X112573738Y-107938118D01*
X112556149Y-107986445D01*
X112556149Y-107986447D01*
X112540500Y-108075195D01*
X112540500Y-112324810D01*
X112541486Y-112347404D01*
X112542627Y-112360452D01*
X112543862Y-112371729D01*
X112576405Y-112467601D01*
X112576407Y-112467605D01*
X112576408Y-112467607D01*
X112602128Y-112512156D01*
X112651548Y-112573732D01*
X112738110Y-112626258D01*
X112786448Y-112643851D01*
X112875195Y-112659499D01*
X112875196Y-112659500D01*
X112875200Y-112659500D01*
X117465300Y-112659500D01*
X117513638Y-112677093D01*
X117539358Y-112721642D01*
X117540500Y-112734700D01*
X117540500Y-119265300D01*
X117522907Y-119313638D01*
X117478358Y-119339358D01*
X117465300Y-119340500D01*
X112875190Y-119340500D01*
X112852595Y-119341486D01*
X112839547Y-119342627D01*
X112828270Y-119343862D01*
X112732398Y-119376405D01*
X112687844Y-119402128D01*
X112626267Y-119451548D01*
X112573742Y-119538108D01*
X112573738Y-119538118D01*
X112556149Y-119586445D01*
X112556149Y-119586447D01*
X112540500Y-119675195D01*
X112540500Y-123924810D01*
X112541486Y-123947404D01*
X112542627Y-123960452D01*
X112543862Y-123971729D01*
X112576405Y-124067601D01*
X112576407Y-124067605D01*
X112576408Y-124067607D01*
X112602128Y-124112156D01*
X112651548Y-124173732D01*
X112711862Y-124210331D01*
X112738110Y-124226258D01*
X112786448Y-124243851D01*
X112875195Y-124259499D01*
X112875196Y-124259500D01*
X112875200Y-124259500D01*
X117465300Y-124259500D01*
X117513638Y-124277093D01*
X117539358Y-124321642D01*
X117540500Y-124334700D01*
X117540500Y-130865300D01*
X117522907Y-130913638D01*
X117478358Y-130939358D01*
X117465300Y-130940500D01*
X112975190Y-130940500D01*
X112952595Y-130941486D01*
X112939547Y-130942627D01*
X112928270Y-130943862D01*
X112832398Y-130976405D01*
X112787844Y-131002128D01*
X112726267Y-131051548D01*
X112673742Y-131138108D01*
X112673738Y-131138118D01*
X112656149Y-131186445D01*
X112656149Y-131186447D01*
X112640500Y-131275195D01*
X112640500Y-140824810D01*
X112641486Y-140847404D01*
X112642627Y-140860452D01*
X112643862Y-140871729D01*
X112676405Y-140967601D01*
X112676407Y-140967605D01*
X112676408Y-140967607D01*
X112702128Y-141012156D01*
X112731258Y-141048451D01*
X112751548Y-141073732D01*
X112833719Y-141123594D01*
X112838110Y-141126258D01*
X112886448Y-141143851D01*
X112975195Y-141159499D01*
X112975196Y-141159500D01*
X112975200Y-141159500D01*
X123124810Y-141159500D01*
X123139872Y-141158842D01*
X123147409Y-141158513D01*
X123160467Y-141157371D01*
X123171728Y-141156138D01*
X123267607Y-141123592D01*
X123312156Y-141097872D01*
X123373732Y-141048452D01*
X123426258Y-140961890D01*
X123443851Y-140913552D01*
X123459499Y-140824804D01*
X123459500Y-140824804D01*
X123459500Y-96475189D01*
X123458513Y-96452595D01*
X123457372Y-96439547D01*
X123457371Y-96439533D01*
X123456138Y-96428272D01*
X123439386Y-96378924D01*
X123423594Y-96332398D01*
X123423593Y-96332396D01*
X123423592Y-96332393D01*
X123397872Y-96287844D01*
X123348452Y-96226268D01*
X123348451Y-96226267D01*
X123261891Y-96173742D01*
X123261881Y-96173738D01*
X123213553Y-96156149D01*
X123124804Y-96140500D01*
X123124800Y-96140500D01*
X112875200Y-96140500D01*
X112875190Y-96140500D01*
X112852595Y-96141486D01*
X112839547Y-96142627D01*
X112828270Y-96143862D01*
X112732398Y-96176405D01*
X112687844Y-96202128D01*
X112626267Y-96251548D01*
X112573742Y-96338108D01*
X112573738Y-96338118D01*
X112556149Y-96386445D01*
X112556149Y-96386447D01*
X112540500Y-96475195D01*
X110305300Y-96475195D01*
X110305300Y-92326742D01*
X113045500Y-92326742D01*
X113045500Y-94723257D01*
X113051959Y-94783339D01*
X113051960Y-94783341D01*
X113102658Y-94919267D01*
X113102659Y-94919268D01*
X113102659Y-94919269D01*
X113189595Y-95035404D01*
X113305730Y-95122340D01*
X113305733Y-95122342D01*
X113441659Y-95173040D01*
X113501746Y-95179500D01*
X113501754Y-95179500D01*
X115898246Y-95179500D01*
X115898254Y-95179500D01*
X115958341Y-95173040D01*
X116094267Y-95122342D01*
X116210404Y-95035404D01*
X116297342Y-94919267D01*
X116348040Y-94783341D01*
X116354500Y-94723254D01*
X116354500Y-92326746D01*
X116348040Y-92266659D01*
X116297342Y-92130733D01*
X116297340Y-92130730D01*
X116210404Y-92014595D01*
X116094269Y-91927659D01*
X116094267Y-91927658D01*
X116039198Y-91907118D01*
X115958342Y-91876960D01*
X115958339Y-91876959D01*
X115898257Y-91870500D01*
X115898254Y-91870500D01*
X113501746Y-91870500D01*
X113501742Y-91870500D01*
X113441660Y-91876959D01*
X113441657Y-91876960D01*
X113340261Y-91914779D01*
X113305733Y-91927658D01*
X113305732Y-91927658D01*
X113305731Y-91927659D01*
X113305730Y-91927659D01*
X113189595Y-92014595D01*
X113102659Y-92130730D01*
X113102659Y-92130731D01*
X113051960Y-92266657D01*
X113051959Y-92266660D01*
X113045500Y-92326742D01*
X110305300Y-92326742D01*
X110305300Y-89880500D01*
X110322893Y-89832162D01*
X110367442Y-89806442D01*
X110380500Y-89805300D01*
X128140300Y-89805300D01*
X128188638Y-89822893D01*
G37*
%TD.AperFunction*%
%TD*%
%TA.AperFunction,Conductor*%
%TO.N,+24V*%
G36*
X123173138Y-96417593D02*
G01*
X123198858Y-96462142D01*
X123200000Y-96475200D01*
X123200000Y-140824800D01*
X123182407Y-140873138D01*
X123137858Y-140898858D01*
X123124800Y-140900000D01*
X112975200Y-140900000D01*
X112926862Y-140882407D01*
X112901142Y-140837858D01*
X112900000Y-140824800D01*
X112900000Y-131275200D01*
X112917593Y-131226862D01*
X112962142Y-131201142D01*
X112975200Y-131200000D01*
X117800000Y-131200000D01*
X117800000Y-124000000D01*
X112875200Y-124000000D01*
X112826862Y-123982407D01*
X112801142Y-123937858D01*
X112800000Y-123924800D01*
X112800000Y-119675200D01*
X112817593Y-119626862D01*
X112862142Y-119601142D01*
X112875200Y-119600000D01*
X117800000Y-119600000D01*
X117800000Y-112400000D01*
X112875200Y-112400000D01*
X112826862Y-112382407D01*
X112801142Y-112337858D01*
X112800000Y-112324800D01*
X112800000Y-108075200D01*
X112817593Y-108026862D01*
X112862142Y-108001142D01*
X112875200Y-108000000D01*
X117800000Y-108000000D01*
X117800000Y-100600000D01*
X112875200Y-100600000D01*
X112826862Y-100582407D01*
X112801142Y-100537858D01*
X112800000Y-100524800D01*
X112800000Y-96475200D01*
X112817593Y-96426862D01*
X112862142Y-96401142D01*
X112875200Y-96400000D01*
X123124800Y-96400000D01*
X123173138Y-96417593D01*
G37*
%TD.AperFunction*%
%TD*%
M02*
