M48
; DRILL file {KiCad 9.0.0} date 2025-04-18T19:56:50-0400
; FORMAT={-:-/ absolute / metric / decimal}
; #@! TF.CreationDate,2025-04-18T19:56:50-04:00
; #@! TF.GenerationSoftware,Kicad,Pcbnew,9.0.0
; #@! TF.FileFunction,Plated,1,2,PTH
FMAT,2
METRIC
; #@! TA.AperFunction,Plated,PTH,ViaDrill
T1C0.330
; #@! TA.AperFunction,Plated,PTH,ComponentDrill
T2C1.000
; #@! TA.AperFunction,Plated,PTH,ComponentDrill
T3C1.020
; #@! TA.AperFunction,Plated,PTH,ComponentDrill
T4C1.100
; #@! TA.AperFunction,Plated,PTH,ComponentDrill
T5C1.200
; #@! TA.AperFunction,Plated,PTH,ComponentDrill
T6C1.300
%
G90
G05
T1
X129.5Y-91.25
X129.5Y-93.5
X129.7Y-98.155
X129.7Y-109.263
X129.7Y-120.372
X130.0Y-105.0
X130.0Y-115.0
X130.0Y-137.5
X130.0Y-140.0
X131.94Y-123.62
X131.94Y-126.16
X131.94Y-128.7
X132.5Y-135.0
X132.5Y-137.5
X132.5Y-140.0
X135.0Y-135.0
X135.0Y-137.5
X135.0Y-140.0
X135.1Y-112.95
X135.1Y-115.45
X135.1Y-117.5
X135.1Y-120.0
X137.3Y-112.95
X137.3Y-115.45
X137.3Y-117.5
X137.3Y-120.0
X140.0Y-102.5
X140.0Y-105.0
X140.0Y-107.5
X141.674Y-129.774
X144.73Y-102.05
X145.0Y-91.0
X145.0Y-93.0
X145.0Y-95.0
X145.0Y-104.5
X145.0Y-106.5
X145.0Y-108.5
X145.0Y-117.0
X145.0Y-131.0
X146.5Y-103.0
X147.0Y-91.0
X147.0Y-93.0
X147.0Y-95.0
X147.0Y-131.0
X148.213Y-107.975
X149.0Y-91.0
X149.0Y-93.0
X149.0Y-95.0
X149.0Y-117.0
X149.0Y-131.0
X149.0Y-133.0
X149.0Y-135.0
X149.0Y-137.0
X149.0Y-139.0
X150.0Y-101.0
X150.0Y-103.0
X150.0Y-111.0
X151.0Y-91.0
X151.0Y-93.0
X151.0Y-95.0
X151.0Y-117.0
X151.0Y-119.0
X151.0Y-131.0
X151.0Y-133.0
X151.0Y-135.0
X151.0Y-137.0
X151.0Y-139.0
X151.132Y-105.675
X152.0Y-101.0
X152.0Y-103.0
X152.0Y-111.0
X153.0Y-91.0
X153.0Y-93.0
X153.0Y-117.0
X153.0Y-119.0
X154.0Y-103.0
X154.0Y-107.0
X154.0Y-109.0
X154.0Y-111.0
X154.0Y-113.0
X155.0Y-117.0
X155.0Y-119.0
X155.0Y-121.0
X155.0Y-123.0
X156.0Y-107.0
X156.35Y-100.3
X156.795Y-112.578
X157.0Y-96.0
X157.0Y-98.0
X157.0Y-117.0
X157.0Y-119.0
X157.0Y-121.0
X157.0Y-123.0
X157.0Y-125.0
X157.0Y-127.0
X158.1Y-133.78
X158.1Y-136.32
X158.1Y-138.86
X158.55Y-103.26
X159.755Y-109.15
X160.0Y-97.0
X160.0Y-99.0
X160.0Y-121.0
X160.0Y-123.0
X160.0Y-125.0
X160.0Y-127.0
X161.0Y-91.0
X161.0Y-93.0
X161.879Y-108.767
X161.879Y-113.847
X162.0Y-97.0
X162.0Y-99.0
X162.0Y-119.0
X162.0Y-121.0
X162.0Y-123.0
X162.0Y-125.0
X162.0Y-127.0
X163.0Y-91.0
X163.0Y-93.0
X163.0Y-140.0
X164.0Y-97.0
X164.0Y-101.0
X164.0Y-119.0
X164.0Y-121.0
X164.0Y-123.0
X164.0Y-125.0
X164.0Y-131.0
X164.0Y-133.0
X165.0Y-140.0
X165.5Y-95.0
X166.0Y-97.0
X166.0Y-99.0
X166.0Y-101.0
X166.0Y-107.0
X166.0Y-121.0
X166.0Y-123.0
X166.0Y-127.0
X166.0Y-129.0
X166.0Y-131.0
X166.0Y-133.0
X166.829Y-111.307
X166.829Y-116.387
X167.0Y-140.0
X167.22Y-134.64
X167.557Y-107.225
X167.858Y-103.26
X168.0Y-127.0
X168.0Y-129.0
X168.0Y-131.0
X168.0Y-137.0
X168.65Y-113.65
X169.0Y-140.0
X170.0Y-91.0
X170.0Y-93.0
X170.0Y-97.0
X170.0Y-99.0
X170.0Y-115.0
X170.0Y-117.0
X170.0Y-121.0
X170.0Y-123.0
X170.0Y-125.0
X170.0Y-127.0
X170.0Y-129.0
X170.0Y-135.0
X170.0Y-137.0
X171.0Y-140.0
X172.0Y-91.0
X172.0Y-93.0
X172.0Y-97.0
X172.0Y-99.0
X172.0Y-101.0
X172.0Y-109.0
X172.0Y-111.0
X172.0Y-113.0
X172.0Y-115.0
X172.0Y-117.0
X172.0Y-121.0
X172.0Y-123.0
X172.0Y-125.0
X172.0Y-127.0
X172.0Y-133.0
X172.0Y-135.0
X173.0Y-140.0
X174.0Y-101.0
X174.0Y-105.0
X174.0Y-111.0
X174.0Y-113.0
X174.0Y-115.0
X174.0Y-117.0
X174.0Y-121.0
X174.0Y-123.0
X174.0Y-125.0
X174.0Y-131.0
X174.0Y-133.0
X174.5Y-95.25
X175.0Y-138.0
X175.0Y-140.0
X175.42Y-109.15
X175.42Y-112.578
X176.0Y-97.0
X176.0Y-99.0
X176.0Y-115.0
X176.0Y-121.0
X176.0Y-123.0
X176.0Y-129.0
X176.0Y-131.0
X177.0Y-136.0
X177.0Y-138.0
X177.0Y-140.0
X177.167Y-103.26
X178.0Y-119.0
X178.0Y-121.0
X178.0Y-127.0
X178.0Y-129.0
X178.38Y-109.15
X179.0Y-91.0
X179.0Y-93.0
X179.0Y-97.0
X179.0Y-99.0
X179.0Y-134.0
X179.0Y-136.0
X179.0Y-138.0
X179.0Y-140.0
X180.0Y-125.0
X180.0Y-127.0
X180.5Y-108.767
X180.5Y-113.847
X181.0Y-91.0
X181.0Y-93.0
X181.0Y-97.0
X181.0Y-99.0
X181.0Y-140.0
X182.0Y-119.0
X182.0Y-121.0
X182.0Y-123.0
X182.0Y-125.0
X183.0Y-101.0
X183.0Y-105.0
X183.0Y-140.0
X184.0Y-119.0
X184.0Y-121.0
X184.0Y-123.0
X185.0Y-95.0
X185.0Y-97.0
X185.0Y-99.0
X185.0Y-128.0
X185.0Y-140.0
X185.45Y-111.307
X185.45Y-116.387
X186.0Y-119.0
X186.0Y-121.0
X186.19Y-105.5
X186.475Y-103.26
X187.0Y-126.0
X187.0Y-128.0
X187.0Y-140.0
X187.69Y-112.59
X188.0Y-95.0
X188.0Y-97.0
X188.0Y-99.0
X189.0Y-124.0
X189.0Y-126.0
X189.0Y-128.0
X189.0Y-140.0
X190.0Y-91.0
X190.0Y-93.0
X190.0Y-95.0
X190.0Y-97.0
X190.0Y-99.0
X191.0Y-91.0
X191.0Y-93.0
X191.0Y-95.0
X191.0Y-97.0
X191.0Y-99.0
X191.0Y-100.0
X191.0Y-102.0
X191.0Y-104.0
X191.0Y-106.0
X191.0Y-108.0
X191.0Y-110.0
X191.0Y-112.0
X191.0Y-114.0
X191.0Y-116.0
X191.0Y-118.0
X191.0Y-120.0
X191.0Y-122.0
X191.0Y-124.0
X191.0Y-126.0
X191.0Y-128.0
X191.0Y-130.0
X191.0Y-132.0
X191.0Y-134.0
X191.0Y-136.0
X191.0Y-138.0
X191.0Y-140.0
T2
X136.3Y-102.9
X136.3Y-105.44
X136.3Y-107.98
X136.3Y-110.52
T3
X137.667Y-123.62
X137.667Y-126.16
X137.667Y-128.7
X137.667Y-131.24
X137.667Y-133.78
X137.667Y-136.32
X137.667Y-138.86
X152.907Y-123.62
X152.907Y-126.16
X152.907Y-128.7
X152.907Y-131.24
X152.907Y-133.78
X152.907Y-136.32
X152.907Y-138.86
T4
X126.9Y-93.075
X126.9Y-95.615
X126.9Y-98.155
X126.9Y-104.183
X126.9Y-106.723
X126.9Y-109.263
X126.9Y-115.292
X126.9Y-117.832
X126.9Y-120.372
X126.9Y-126.4
X126.9Y-128.94
X126.9Y-131.48
T5
X156.01Y-93.15
X158.55Y-93.15
X165.318Y-93.15
X167.858Y-93.15
X174.627Y-93.15
X177.167Y-93.15
X183.935Y-93.15
X186.475Y-93.15
T6
X114.7Y-93.525
X114.7Y-98.525
X114.7Y-105.175
X114.7Y-110.175
X114.7Y-116.825
X114.7Y-121.825
X114.7Y-128.475
X114.7Y-133.475
M30
