%TF.GenerationSoftware,KiCad,Pcbnew,9.0.0*%
%TF.CreationDate,2025-04-18T19:56:47-04:00*%
%TF.ProjectId,TEMP_ctrl,54454d50-5f63-4747-926c-2e6b69636164,rev?*%
%TF.SameCoordinates,Original*%
%TF.FileFunction,Soldermask,Top*%
%TF.FilePolarity,Negative*%
%FSLAX46Y46*%
G04 Gerber Fmt 4.6, Leading zero omitted, Abs format (unit mm)*
G04 Created by KiCad (PCBNEW 9.0.0) date 2025-04-18 19:56:47*
%MOMM*%
%LPD*%
G01*
G04 APERTURE LIST*
G04 Aperture macros list*
%AMRoundRect*
0 Rectangle with rounded corners*
0 $1 Rounding radius*
0 $2 $3 $4 $5 $6 $7 $8 $9 X,Y pos of 4 corners*
0 Add a 4 corners polygon primitive as box body*
4,1,4,$2,$3,$4,$5,$6,$7,$8,$9,$2,$3,0*
0 Add four circle primitives for the rounded corners*
1,1,$1+$1,$2,$3*
1,1,$1+$1,$4,$5*
1,1,$1+$1,$6,$7*
1,1,$1+$1,$8,$9*
0 Add four rect primitives between the rounded corners*
20,1,$1+$1,$2,$3,$4,$5,0*
20,1,$1+$1,$4,$5,$6,$7,0*
20,1,$1+$1,$6,$7,$8,$9,0*
20,1,$1+$1,$8,$9,$2,$3,0*%
G04 Aperture macros list end*
%ADD10C,0.100000*%
%ADD11R,2.000000X1.905000*%
%ADD12O,2.000000X1.905000*%
%ADD13RoundRect,0.250001X-1.149999X1.149999X-1.149999X-1.149999X1.149999X-1.149999X1.149999X1.149999X0*%
%ADD14C,2.800000*%
%ADD15RoundRect,0.266521X0.346479X0.671479X-0.346479X0.671479X-0.346479X-0.671479X0.346479X-0.671479X0*%
%ADD16RoundRect,0.265778X0.332222X0.647222X-0.332222X0.647222X-0.332222X-0.647222X0.332222X-0.647222X0*%
%ADD17RoundRect,0.265778X-0.332222X-0.647222X0.332222X-0.647222X0.332222X0.647222X-0.332222X0.647222X0*%
%ADD18RoundRect,0.266521X-0.346479X-0.671479X0.346479X-0.671479X0.346479X0.671479X-0.346479X0.671479X0*%
%ADD19RoundRect,0.150000X-0.825000X-0.150000X0.825000X-0.150000X0.825000X0.150000X-0.825000X0.150000X0*%
%ADD20RoundRect,0.265778X0.647222X-0.332222X0.647222X0.332222X-0.647222X0.332222X-0.647222X-0.332222X0*%
%ADD21RoundRect,0.265778X-0.647222X0.332222X-0.647222X-0.332222X0.647222X-0.332222X0.647222X0.332222X0*%
%ADD22RoundRect,0.150000X-0.512500X-0.150000X0.512500X-0.150000X0.512500X0.150000X-0.512500X0.150000X0*%
%ADD23RoundRect,0.250000X0.750000X0.750000X-0.750000X0.750000X-0.750000X-0.750000X0.750000X-0.750000X0*%
%ADD24C,2.000000*%
%ADD25RoundRect,0.266521X-0.671479X0.346479X-0.671479X-0.346479X0.671479X-0.346479X0.671479X0.346479X0*%
%ADD26RoundRect,0.150000X0.150000X-0.587500X0.150000X0.587500X-0.150000X0.587500X-0.150000X-0.587500X0*%
%ADD27R,1.700000X1.700000*%
%ADD28O,1.700000X1.700000*%
%ADD29R,4.000000X4.000000*%
%ADD30RoundRect,0.102000X0.765000X0.765000X-0.765000X0.765000X-0.765000X-0.765000X0.765000X-0.765000X0*%
%ADD31C,1.734000*%
G04 APERTURE END LIST*
D10*
X142600000Y-91200000D02*
X142600000Y-96300000D01*
X142150000Y-96750000D01*
X131200000Y-96750000D01*
X130700000Y-96250000D01*
X130700000Y-91250000D01*
X131200000Y-90750000D01*
X142150000Y-90750000D01*
X142600000Y-91200000D01*
G36*
X142600000Y-91200000D02*
G01*
X142600000Y-96300000D01*
X142150000Y-96750000D01*
X131200000Y-96750000D01*
X130700000Y-96250000D01*
X130700000Y-91250000D01*
X131200000Y-90750000D01*
X142150000Y-90750000D01*
X142600000Y-91200000D01*
G37*
X180325000Y-129450000D02*
X189775000Y-129450000D01*
X189775000Y-138750000D01*
X180325000Y-138750000D01*
X180325000Y-129450000D01*
G36*
X180325000Y-129450000D02*
G01*
X189775000Y-129450000D01*
X189775000Y-138750000D01*
X180325000Y-138750000D01*
X180325000Y-129450000D01*
G37*
D11*
%TO.C,Q2*%
X126900000Y-98155000D03*
D12*
X126900000Y-95615000D03*
X126900000Y-93075000D03*
%TD*%
D13*
%TO.C,J10*%
X114700000Y-116825000D03*
D14*
X114700000Y-121825000D03*
%TD*%
D15*
%TO.C,C11*%
X177166667Y-98250000D03*
X174206667Y-98250000D03*
%TD*%
D16*
%TO.C,R9*%
X170476667Y-105500000D03*
X167556667Y-105500000D03*
%TD*%
D17*
%TO.C,R18*%
X141810000Y-99750000D03*
X144730000Y-99750000D03*
%TD*%
D18*
%TO.C,C6*%
X158100000Y-131240000D03*
X161060000Y-131240000D03*
%TD*%
D19*
%TO.C,U1*%
X161879167Y-108767500D03*
X161879167Y-110037500D03*
X161879167Y-111307500D03*
X161879167Y-112577500D03*
X161879167Y-113847500D03*
X161879167Y-115117500D03*
X161879167Y-116387500D03*
X166829167Y-116387500D03*
X166829167Y-115117500D03*
X166829167Y-113847500D03*
X166829167Y-112577500D03*
X166829167Y-111307500D03*
X166829167Y-110037500D03*
X166829167Y-108767500D03*
%TD*%
D18*
%TO.C,C7*%
X158100000Y-133780000D03*
X161060000Y-133780000D03*
%TD*%
%TO.C,C9*%
X158100000Y-138860000D03*
X161060000Y-138860000D03*
%TD*%
%TO.C,C8*%
X158100000Y-136320000D03*
X161060000Y-136320000D03*
%TD*%
D16*
%TO.C,R17*%
X189110000Y-105500000D03*
X186190000Y-105500000D03*
%TD*%
D20*
%TO.C,R24*%
X129700000Y-123291667D03*
X129700000Y-120371667D03*
%TD*%
D21*
%TO.C,R13*%
X179475000Y-100340000D03*
X179475000Y-103260000D03*
%TD*%
D22*
%TO.C,U3*%
X145937500Y-112587500D03*
X145937500Y-113537500D03*
X145937500Y-114487500D03*
X148212500Y-114487500D03*
X148212500Y-112587500D03*
%TD*%
D13*
%TO.C,J12*%
X114700000Y-128475000D03*
D14*
X114700000Y-133475000D03*
%TD*%
D21*
%TO.C,R8*%
X170150000Y-100340000D03*
X170150000Y-103260000D03*
%TD*%
D15*
%TO.C,C2*%
X159755000Y-112577500D03*
X156795000Y-112577500D03*
%TD*%
D16*
%TO.C,R4*%
X161160000Y-105500000D03*
X158240000Y-105500000D03*
%TD*%
D21*
%TO.C,R3*%
X160850000Y-100340000D03*
X160850000Y-103260000D03*
%TD*%
D23*
%TO.C,J1*%
X158550000Y-93150000D03*
D24*
X156010000Y-93150000D03*
%TD*%
D21*
%TO.C,R25*%
X129700000Y-128560000D03*
X129700000Y-131480000D03*
%TD*%
D16*
%TO.C,R28*%
X149660000Y-128700000D03*
X146740000Y-128700000D03*
%TD*%
D17*
%TO.C,R5*%
X148212500Y-107975000D03*
X151132500Y-107975000D03*
%TD*%
D16*
%TO.C,R6*%
X151132500Y-105675000D03*
X148212500Y-105675000D03*
%TD*%
%TO.C,R19*%
X134860000Y-123620000D03*
X131940000Y-123620000D03*
%TD*%
D20*
%TO.C,R23*%
X129700000Y-101075000D03*
X129700000Y-98155000D03*
%TD*%
D25*
%TO.C,C10*%
X142000000Y-112587500D03*
X142000000Y-115547500D03*
%TD*%
D15*
%TO.C,C15*%
X144730000Y-102050000D03*
X141770000Y-102050000D03*
%TD*%
D21*
%TO.C,R12*%
X186475000Y-100340000D03*
X186475000Y-103260000D03*
%TD*%
D13*
%TO.C,J9*%
X114700000Y-93525000D03*
D14*
X114700000Y-98525000D03*
%TD*%
D16*
%TO.C,R20*%
X134860000Y-126160000D03*
X131940000Y-126160000D03*
%TD*%
D26*
%TO.C,Q3*%
X146750000Y-99750000D03*
X148650000Y-99750000D03*
X147700000Y-97875000D03*
%TD*%
D21*
%TO.C,R11*%
X177166667Y-100340000D03*
X177166667Y-103260000D03*
%TD*%
D15*
%TO.C,C13*%
X158550000Y-98250000D03*
X155590000Y-98250000D03*
%TD*%
D11*
%TO.C,Q5*%
X126900000Y-131480000D03*
D12*
X126900000Y-128940000D03*
X126900000Y-126400000D03*
%TD*%
D15*
%TO.C,C3*%
X178380000Y-112577500D03*
X175420000Y-112577500D03*
%TD*%
D27*
%TO.C,J7*%
X136300000Y-102900000D03*
D28*
X136300000Y-105440000D03*
X136300000Y-107980000D03*
X136300000Y-110520000D03*
%TD*%
D16*
%TO.C,R22*%
X134860000Y-131240000D03*
X131940000Y-131240000D03*
%TD*%
D20*
%TO.C,R26*%
X129700000Y-112183333D03*
X129700000Y-109263333D03*
%TD*%
D16*
%TO.C,R21*%
X134860000Y-128700000D03*
X131940000Y-128700000D03*
%TD*%
D17*
%TO.C,R10*%
X141815000Y-110500000D03*
X144735000Y-110500000D03*
%TD*%
D23*
%TO.C,J4*%
X186475000Y-93150000D03*
D24*
X183935000Y-93150000D03*
%TD*%
D15*
%TO.C,C12*%
X186475000Y-98250000D03*
X183515000Y-98250000D03*
%TD*%
D17*
%TO.C,R1*%
X141815000Y-136000000D03*
X144735000Y-136000000D03*
%TD*%
D19*
%TO.C,U4*%
X180500000Y-108767500D03*
X180500000Y-110037500D03*
X180500000Y-111307500D03*
X180500000Y-112577500D03*
X180500000Y-113847500D03*
X180500000Y-115117500D03*
X180500000Y-116387500D03*
X185450000Y-116387500D03*
X185450000Y-115117500D03*
X185450000Y-113847500D03*
X185450000Y-112577500D03*
X185450000Y-111307500D03*
X185450000Y-110037500D03*
X185450000Y-108767500D03*
%TD*%
D21*
%TO.C,R14*%
X188800000Y-100340000D03*
X188800000Y-103260000D03*
%TD*%
D23*
%TO.C,J3*%
X167858333Y-93150000D03*
D24*
X165318333Y-93150000D03*
%TD*%
D17*
%TO.C,R15*%
X126830000Y-135500000D03*
X129750000Y-135500000D03*
%TD*%
D11*
%TO.C,Q4*%
X126900000Y-120371667D03*
D12*
X126900000Y-117831667D03*
X126900000Y-115291667D03*
%TD*%
D13*
%TO.C,J11*%
X114700000Y-105175000D03*
D14*
X114700000Y-110175000D03*
%TD*%
D11*
%TO.C,Q1*%
X126900000Y-109263333D03*
D12*
X126900000Y-106723333D03*
X126900000Y-104183333D03*
%TD*%
D16*
%TO.C,R16*%
X179793333Y-105500000D03*
X176873333Y-105500000D03*
%TD*%
D29*
%TO.C,J6*%
X122625000Y-138500000D03*
%TD*%
D25*
%TO.C,C1*%
X150350000Y-112587500D03*
X150350000Y-115547500D03*
%TD*%
D30*
%TO.C,U2*%
X152907500Y-138860000D03*
D31*
X152907500Y-136320000D03*
X152907500Y-133780000D03*
X152907500Y-131240000D03*
X152907500Y-128700000D03*
X152907500Y-126160000D03*
X152907500Y-123620000D03*
X137667500Y-123620000D03*
X137667500Y-126160000D03*
X137667500Y-128700000D03*
X137667500Y-131240000D03*
X137667500Y-133780000D03*
X137667500Y-136320000D03*
X137667500Y-138860000D03*
%TD*%
D15*
%TO.C,C14*%
X167858333Y-98250000D03*
X164898333Y-98250000D03*
%TD*%
D23*
%TO.C,J2*%
X177166667Y-93150000D03*
D24*
X174626667Y-93150000D03*
%TD*%
D18*
%TO.C,C4*%
X156795000Y-109150000D03*
X159755000Y-109150000D03*
%TD*%
D21*
%TO.C,R2*%
X158550000Y-100340000D03*
X158550000Y-103260000D03*
%TD*%
%TO.C,R7*%
X167858333Y-100340000D03*
X167858333Y-103260000D03*
%TD*%
D16*
%TO.C,R27*%
X149660000Y-126160000D03*
X146740000Y-126160000D03*
%TD*%
D18*
%TO.C,C5*%
X175420000Y-109150000D03*
X178380000Y-109150000D03*
%TD*%
M02*
